<?xml version="1.0" encoding="UTF-8" standalone="no"?>
<!-- Created with Inkscape (http://www.inkscape.org/) -->

<svg
   xmlns:dc="http://purl.org/dc/elements/1.1/"
   xmlns:cc="http://creativecommons.org/ns#"
   xmlns:rdf="http://www.w3.org/1999/02/22-rdf-syntax-ns#"
   xmlns:svg="http://www.w3.org/2000/svg"
   xmlns="http://www.w3.org/2000/svg"
   xmlns:sodipodi="http://sodipodi.sourceforge.net/DTD/sodipodi-0.dtd"
   xmlns:inkscape="http://www.inkscape.org/namespaces/inkscape"
   width="599.45789"
   height="957.49524"
   id="svg2"
   version="1.1"
   inkscape:version="0.48.0 r9654"
   sodipodi:docname="rotationplatform.svg">
  <defs
     id="defs4">
    <inkscape:perspective
       sodipodi:type="inkscape:persp3d"
       inkscape:vp_x="0 : 526.18109 : 1"
       inkscape:vp_y="0 : 1000 : 0"
       inkscape:vp_z="744.09448 : 526.18109 : 1"
       inkscape:persp3d-origin="372.04724 : 350.78739 : 1"
       id="perspective10" />
    <inkscape:perspective
       id="perspective3598"
       inkscape:persp3d-origin="0.5 : 0.33333333 : 1"
       inkscape:vp_z="1 : 0.5 : 1"
       inkscape:vp_y="0 : 1000 : 0"
       inkscape:vp_x="0 : 0.5 : 1"
       sodipodi:type="inkscape:persp3d" />
    <inkscape:perspective
       id="perspective3622"
       inkscape:persp3d-origin="0.5 : 0.33333333 : 1"
       inkscape:vp_z="1 : 0.5 : 1"
       inkscape:vp_y="0 : 1000 : 0"
       inkscape:vp_x="0 : 0.5 : 1"
       sodipodi:type="inkscape:persp3d" />
    <inkscape:perspective
       id="perspective3646"
       inkscape:persp3d-origin="0.5 : 0.33333333 : 1"
       inkscape:vp_z="1 : 0.5 : 1"
       inkscape:vp_y="0 : 1000 : 0"
       inkscape:vp_x="0 : 0.5 : 1"
       sodipodi:type="inkscape:persp3d" />
    <inkscape:perspective
       id="perspective3668"
       inkscape:persp3d-origin="0.5 : 0.33333333 : 1"
       inkscape:vp_z="1 : 0.5 : 1"
       inkscape:vp_y="0 : 1000 : 0"
       inkscape:vp_x="0 : 0.5 : 1"
       sodipodi:type="inkscape:persp3d" />
    <inkscape:perspective
       id="perspective3690"
       inkscape:persp3d-origin="0.5 : 0.33333333 : 1"
       inkscape:vp_z="1 : 0.5 : 1"
       inkscape:vp_y="0 : 1000 : 0"
       inkscape:vp_x="0 : 0.5 : 1"
       sodipodi:type="inkscape:persp3d" />
    <inkscape:perspective
       id="perspective3728"
       inkscape:persp3d-origin="0.5 : 0.33333333 : 1"
       inkscape:vp_z="1 : 0.5 : 1"
       inkscape:vp_y="0 : 1000 : 0"
       inkscape:vp_x="0 : 0.5 : 1"
       sodipodi:type="inkscape:persp3d" />
    <inkscape:perspective
       id="perspective3728-6"
       inkscape:persp3d-origin="0.5 : 0.33333333 : 1"
       inkscape:vp_z="1 : 0.5 : 1"
       inkscape:vp_y="0 : 1000 : 0"
       inkscape:vp_x="0 : 0.5 : 1"
       sodipodi:type="inkscape:persp3d" />
    <inkscape:perspective
       id="perspective3728-0"
       inkscape:persp3d-origin="0.5 : 0.33333333 : 1"
       inkscape:vp_z="1 : 0.5 : 1"
       inkscape:vp_y="0 : 1000 : 0"
       inkscape:vp_x="0 : 0.5 : 1"
       sodipodi:type="inkscape:persp3d" />
    <inkscape:perspective
       id="perspective3728-07"
       inkscape:persp3d-origin="0.5 : 0.33333333 : 1"
       inkscape:vp_z="1 : 0.5 : 1"
       inkscape:vp_y="0 : 1000 : 0"
       inkscape:vp_x="0 : 0.5 : 1"
       sodipodi:type="inkscape:persp3d" />
    <inkscape:perspective
       id="perspective3777"
       inkscape:persp3d-origin="0.5 : 0.33333333 : 1"
       inkscape:vp_z="1 : 0.5 : 1"
       inkscape:vp_y="0 : 1000 : 0"
       inkscape:vp_x="0 : 0.5 : 1"
       sodipodi:type="inkscape:persp3d" />
  </defs>
  <sodipodi:namedview
     id="base"
     pagecolor="#ffffff"
     bordercolor="#666666"
     borderopacity="1.0"
     inkscape:pageopacity="0.0"
     inkscape:pageshadow="2"
     inkscape:zoom="0.25"
     inkscape:cx="-1485.3517"
     inkscape:cy="1221.9201"
     inkscape:document-units="mm"
     inkscape:current-layer="layer1"
     showgrid="false"
     units="mm"
     inkscape:window-width="1680"
     inkscape:window-height="977"
     inkscape:window-x="0"
     inkscape:window-y="24"
     inkscape:window-maximized="1"
     fit-margin-top="10"
     fit-margin-left="10"
     fit-margin-right="10"
     fit-margin-bottom="10" />
  <metadata
     id="metadata7">
    <rdf:RDF>
      <cc:Work
         rdf:about="">
        <dc:format>image/svg+xml</dc:format>
        <dc:type
           rdf:resource="http://purl.org/dc/dcmitype/StillImage" />
        <dc:title></dc:title>
      </cc:Work>
    </rdf:RDF>
  </metadata>
  <g
     inkscape:label="Layer 1"
     inkscape:groupmode="layer"
     id="layer1"
     transform="translate(15.745784,15.66931)">
    <path
       style="fill:#000000;fill-opacity:1;stroke:none;opacity:0.12556054"
       d="m 232.28104,481.20536 c -117.41487,0 -212.593753,95.17888 -212.593753,212.59375 0,117.41487 95.178883,212.59375 212.593753,212.59375 117.41487,0 212.59375,-95.17888 212.59375,-212.59375 0,-117.41487 -95.17888,-212.59375 -212.59375,-212.59375 z m 0,203.71875 c 4.89229,0 8.84375,3.98271 8.84375,8.875 0,4.89229 -3.95146,8.84375 -8.84375,8.84375 -4.89229,0 -8.875,-3.95146 -8.875,-8.84375 0,-4.89229 3.98271,-8.875 8.875,-8.875 z"
       id="path2816-1"
       inkscape:connector-curvature="0" />
    <path
       style="fill:#000000;fill-opacity:1;stroke:none;opacity:0.12556054"
       d="m 512.84152,120.65485 c -19.56914,0 -35.40625,15.86836 -35.40625,35.4375 0,19.56914 15.83711,35.4375 35.40625,35.4375 19.56914,0 35.4375,-15.86836 35.4375,-35.4375 0,-19.56914 -15.86836,-35.4375 -35.4375,-35.4375 z m 0,26.59375 c 4.89229,0 8.875,3.95146 8.875,8.84375 0,4.89229 -3.98271,8.84375 -8.875,8.84375 -4.89229,0 -8.84375,-3.95146 -8.84375,-8.84375 0,-4.89229 3.95146,-8.84375 8.84375,-8.84375 z"
       id="path3612"
       inkscape:connector-curvature="0" />
    <path
       sodipodi:type="arc"
       style="fill:#000000;fill-opacity:1;stroke:none;opacity:0.12556054"
       id="path2816-1-3"
       sodipodi:cx="181.42857"
       sodipodi:cy="162.36218"
       sodipodi:rx="61.42857"
       sodipodi:ry="110"
       d="m 242.85714,162.36218 c 0,60.75133 -27.5025,110 -61.42857,110 -33.92606,0 -61.42857,-49.24867 -61.42857,-110 0,-60.75132 27.50251,-109.999997 61.42857,-109.999997 33.92607,0 61.42857,49.248677 61.42857,109.999997 z"
       transform="matrix(3.4609047,0,0,1.932713,-395.62129,-81.43731)" />
    <path
       style="fill:#000000;fill-opacity:1;stroke:none;opacity:0.12556054"
       d="m 512.84152,39.781857 c -19.56914,0 -35.40625,15.86836 -35.40625,35.4375 0,19.56914 15.83711,35.437503 35.40625,35.437503 19.56914,0 35.4375,-15.868363 35.4375,-35.437503 0,-19.56914 -15.86836,-35.4375 -35.4375,-35.4375 z m 0,26.59375 c 4.89229,0 8.875,3.95146 8.875,8.84375 0,4.89229 -3.98271,8.84375 -8.875,8.84375 -4.89229,0 -8.84375,-3.95146 -8.84375,-8.84375 0,-4.89229 3.95146,-8.84375 8.84375,-8.84375 z"
       id="path3612-0"
       inkscape:connector-curvature="0" />
    <path
       style="fill:#000000;fill-opacity:1;stroke:none;opacity:0.12556054"
       d="m 512.84152,201.52789 c -19.56914,0 -35.40625,15.86836 -35.40625,35.4375 0,19.56914 15.83711,35.4375 35.40625,35.4375 19.56914,0 35.4375,-15.86836 35.4375,-35.4375 0,-19.56914 -15.86836,-35.4375 -35.4375,-35.4375 z m 0,26.59375 c 4.89229,0 8.875,3.95146 8.875,8.84375 0,4.89229 -3.98271,8.84375 -8.875,8.84375 -4.89229,0 -8.84375,-3.95146 -8.84375,-8.84375 0,-4.89229 3.95146,-8.84375 8.84375,-8.84375 z"
       id="path3612-3"
       inkscape:connector-curvature="0" />
    <path
       style="fill:#000000;fill-opacity:1;stroke:none;opacity:0.12556054"
       d="m 512.84152,282.40088 c -19.56914,0 -35.40625,15.86836 -35.40625,35.4375 0,19.56914 15.83711,35.4375 35.40625,35.4375 19.56914,0 35.4375,-15.86836 35.4375,-35.4375 0,-19.56914 -15.86836,-35.4375 -35.4375,-35.4375 z m 0,26.59375 c 4.89229,0 8.875,3.95146 8.875,8.84375 0,4.89229 -3.98271,8.84375 -8.875,8.84375 -4.89229,0 -8.84375,-3.95146 -8.84375,-8.84375 0,-4.89229 3.95146,-8.84375 8.84375,-8.84375 z"
       id="path3612-2"
       inkscape:connector-curvature="0" />
    <path
       style="fill:#000000;fill-opacity:1;stroke:none;opacity:0.12556054"
       d="m 512.84152,363.27387 c -19.56914,0 -35.40625,15.86836 -35.40625,35.4375 0,19.56914 15.83711,35.4375 35.40625,35.4375 19.56914,0 35.4375,-15.86836 35.4375,-35.4375 0,-19.56914 -15.86836,-35.4375 -35.4375,-35.4375 z m 0,26.59375 c 4.89229,0 8.875,3.95146 8.875,8.84375 0,4.89229 -3.98271,8.84375 -8.875,8.84375 -4.89229,0 -8.84375,-3.95146 -8.84375,-8.84375 0,-4.89229 3.95146,-8.84375 8.84375,-8.84375 z"
       id="path3612-4"
       inkscape:connector-curvature="0" />
    <path
       style="fill:#000000;fill-opacity:1;stroke:none;opacity:0.12556054"
       d="m 512.84152,525.01994 c -19.56914,0 -35.40625,15.86836 -35.40625,35.43749 0,19.56914 15.83711,35.4375 35.40625,35.4375 19.56914,0 35.4375,-15.86836 35.4375,-35.4375 0,-19.56913 -15.86836,-35.43749 -35.4375,-35.43749 z m 0,26.59374 c 4.89229,0 8.875,3.95146 8.875,8.84375 0,4.89229 -3.98271,8.84375 -8.875,8.84375 -4.89229,0 -8.84375,-3.95146 -8.84375,-8.84375 0,-4.89229 3.95146,-8.84375 8.84375,-8.84375 z"
       id="path3612-22"
       inkscape:connector-curvature="0" />
    <path
       style="fill:#000000;fill-opacity:1;stroke:none;opacity:0.12556054"
       d="m 512.84152,444.1469 c -19.56914,0 -35.40625,15.86836 -35.40625,35.4375 0,19.56914 15.83711,35.4375 35.40625,35.4375 19.56914,0 35.4375,-15.86836 35.4375,-35.4375 0,-19.56914 -15.86836,-35.4375 -35.4375,-35.4375 z m 0,26.59375 c 4.89229,0 8.875,3.95146 8.875,8.84375 0,4.89229 -3.98271,8.84375 -8.875,8.84375 -4.89229,0 -8.84375,-3.95146 -8.84375,-8.84375 0,-4.89229 3.95146,-8.84375 8.84375,-8.84375 z"
       id="path3612-0-4"
       inkscape:connector-curvature="0" />
    <path
       style="fill:#000000;fill-opacity:1;stroke:none;opacity:0.12556054"
       d="m 512.84152,605.89295 c -19.56914,0 -35.40625,15.86836 -35.40625,35.4375 0,19.56914 15.83711,35.4375 35.40625,35.4375 19.56914,0 35.4375,-15.86836 35.4375,-35.4375 0,-19.56914 -15.86836,-35.4375 -35.4375,-35.4375 z m 0,26.59375 c 4.89229,0 8.875,3.95146 8.875,8.84375 0,4.89229 -3.98271,8.84375 -8.875,8.84375 -4.89229,0 -8.84375,-3.95146 -8.84375,-8.84375 0,-4.89229 3.95146,-8.84375 8.84375,-8.84375 z"
       id="path3612-3-7"
       inkscape:connector-curvature="0" />
    <path
       style="fill:#000000;fill-opacity:1;stroke:none;opacity:0.12556054"
       d="m 512.84152,686.76597 c -19.56914,0 -35.40625,15.86836 -35.40625,35.4375 0,19.56914 15.83711,35.4375 35.40625,35.4375 19.56914,0 35.4375,-15.86836 35.4375,-35.4375 0,-19.56914 -15.86836,-35.4375 -35.4375,-35.4375 z m 0,26.59375 c 4.89229,0 8.875,3.95146 8.875,8.84375 0,4.89229 -3.98271,8.84375 -8.875,8.84375 -4.89229,0 -8.84375,-3.95146 -8.84375,-8.84375 0,-4.89229 3.95146,-8.84375 8.84375,-8.84375 z"
       id="path3612-2-9"
       inkscape:connector-curvature="0" />
    <path
       style="fill:#000000;fill-opacity:1;stroke:none;opacity:0.12556054"
       d="m 512.84152,767.63897 c -19.56914,0 -35.40625,15.86836 -35.40625,35.4375 0,19.56914 15.83711,35.4375 35.40625,35.4375 19.56914,0 35.4375,-15.86836 35.4375,-35.4375 0,-19.56914 -15.86836,-35.4375 -35.4375,-35.4375 z m 0,26.59375 c 4.89229,0 8.875,3.95146 8.875,8.84375 0,4.89229 -3.98271,8.84375 -8.875,8.84375 -4.89229,0 -8.84375,-3.95146 -8.84375,-8.84375 0,-4.89229 3.95146,-8.84375 8.84375,-8.84375 z"
       id="path3612-4-8"
       inkscape:connector-curvature="0" />
  </g>
</svg>
