<?xml version="1.0" encoding="UTF-8" standalone="no"?>
<!-- Created with Inkscape (http://www.inkscape.org/) -->

<svg
   xmlns:dc="http://purl.org/dc/elements/1.1/"
   xmlns:cc="http://creativecommons.org/ns#"
   xmlns:rdf="http://www.w3.org/1999/02/22-rdf-syntax-ns#"
   xmlns:svg="http://www.w3.org/2000/svg"
   xmlns="http://www.w3.org/2000/svg"
   xmlns:sodipodi="http://sodipodi.sourceforge.net/DTD/sodipodi-0.dtd"
   xmlns:inkscape="http://www.inkscape.org/namespaces/inkscape"
   width="1488.189"
   height="2104.7244"
   id="svg2"
   version="1.1"
   inkscape:version="0.48.0 r9654"
   sodipodi:docname="source.svg">
  <defs
     id="defs4">
    <inkscape:perspective
       sodipodi:type="inkscape:persp3d"
       inkscape:vp_x="0 : 526.18109 : 1"
       inkscape:vp_y="0 : 1000 : 0"
       inkscape:vp_z="744.09448 : 526.18109 : 1"
       inkscape:persp3d-origin="372.04724 : 350.78739 : 1"
       id="perspective10" />
    <inkscape:perspective
       id="perspective3602"
       inkscape:persp3d-origin="0.5 : 0.33333333 : 1"
       inkscape:vp_z="1 : 0.5 : 1"
       inkscape:vp_y="0 : 1000 : 0"
       inkscape:vp_x="0 : 0.5 : 1"
       sodipodi:type="inkscape:persp3d" />
    <inkscape:perspective
       id="perspective3630"
       inkscape:persp3d-origin="0.5 : 0.33333333 : 1"
       inkscape:vp_z="1 : 0.5 : 1"
       inkscape:vp_y="0 : 1000 : 0"
       inkscape:vp_x="0 : 0.5 : 1"
       sodipodi:type="inkscape:persp3d" />
    <inkscape:perspective
       id="perspective4874"
       inkscape:persp3d-origin="0.5 : 0.33333333 : 1"
       inkscape:vp_z="1 : 0.5 : 1"
       inkscape:vp_y="0 : 1000 : 0"
       inkscape:vp_x="0 : 0.5 : 1"
       sodipodi:type="inkscape:persp3d" />
    <inkscape:perspective
       id="perspective5137"
       inkscape:persp3d-origin="0.5 : 0.33333333 : 1"
       inkscape:vp_z="1 : 0.5 : 1"
       inkscape:vp_y="0 : 1000 : 0"
       inkscape:vp_x="0 : 0.5 : 1"
       sodipodi:type="inkscape:persp3d" />
    <inkscape:perspective
       id="perspective5178"
       inkscape:persp3d-origin="0.5 : 0.33333333 : 1"
       inkscape:vp_z="1 : 0.5 : 1"
       inkscape:vp_y="0 : 1000 : 0"
       inkscape:vp_x="0 : 0.5 : 1"
       sodipodi:type="inkscape:persp3d" />
    <inkscape:perspective
       id="perspective5206"
       inkscape:persp3d-origin="0.5 : 0.33333333 : 1"
       inkscape:vp_z="1 : 0.5 : 1"
       inkscape:vp_y="0 : 1000 : 0"
       inkscape:vp_x="0 : 0.5 : 1"
       sodipodi:type="inkscape:persp3d" />
    <inkscape:perspective
       id="perspective5299"
       inkscape:persp3d-origin="0.5 : 0.33333333 : 1"
       inkscape:vp_z="1 : 0.5 : 1"
       inkscape:vp_y="0 : 1000 : 0"
       inkscape:vp_x="0 : 0.5 : 1"
       sodipodi:type="inkscape:persp3d" />
    <inkscape:perspective
       id="perspective5339"
       inkscape:persp3d-origin="0.5 : 0.33333333 : 1"
       inkscape:vp_z="1 : 0.5 : 1"
       inkscape:vp_y="0 : 1000 : 0"
       inkscape:vp_x="0 : 0.5 : 1"
       sodipodi:type="inkscape:persp3d" />
    <inkscape:perspective
       id="perspective5339-2"
       inkscape:persp3d-origin="0.5 : 0.33333333 : 1"
       inkscape:vp_z="1 : 0.5 : 1"
       inkscape:vp_y="0 : 1000 : 0"
       inkscape:vp_x="0 : 0.5 : 1"
       sodipodi:type="inkscape:persp3d" />
    <inkscape:perspective
       id="perspective5403"
       inkscape:persp3d-origin="0.5 : 0.33333333 : 1"
       inkscape:vp_z="1 : 0.5 : 1"
       inkscape:vp_y="0 : 1000 : 0"
       inkscape:vp_x="0 : 0.5 : 1"
       sodipodi:type="inkscape:persp3d" />
    <inkscape:perspective
       id="perspective5425"
       inkscape:persp3d-origin="0.5 : 0.33333333 : 1"
       inkscape:vp_z="1 : 0.5 : 1"
       inkscape:vp_y="0 : 1000 : 0"
       inkscape:vp_x="0 : 0.5 : 1"
       sodipodi:type="inkscape:persp3d" />
    <inkscape:perspective
       id="perspective5464"
       inkscape:persp3d-origin="0.5 : 0.33333333 : 1"
       inkscape:vp_z="1 : 0.5 : 1"
       inkscape:vp_y="0 : 1000 : 0"
       inkscape:vp_x="0 : 0.5 : 1"
       sodipodi:type="inkscape:persp3d" />
    <inkscape:perspective
       id="perspective5490"
       inkscape:persp3d-origin="0.5 : 0.33333333 : 1"
       inkscape:vp_z="1 : 0.5 : 1"
       inkscape:vp_y="0 : 1000 : 0"
       inkscape:vp_x="0 : 0.5 : 1"
       sodipodi:type="inkscape:persp3d" />
    <inkscape:perspective
       id="perspective5513"
       inkscape:persp3d-origin="0.5 : 0.33333333 : 1"
       inkscape:vp_z="1 : 0.5 : 1"
       inkscape:vp_y="0 : 1000 : 0"
       inkscape:vp_x="0 : 0.5 : 1"
       sodipodi:type="inkscape:persp3d" />
    <inkscape:perspective
       id="perspective2859"
       inkscape:persp3d-origin="0.5 : 0.33333333 : 1"
       inkscape:vp_z="1 : 0.5 : 1"
       inkscape:vp_y="0 : 1000 : 0"
       inkscape:vp_x="0 : 0.5 : 1"
       sodipodi:type="inkscape:persp3d" />
    <inkscape:perspective
       id="perspective3736"
       inkscape:persp3d-origin="0.5 : 0.33333333 : 1"
       inkscape:vp_z="1 : 0.5 : 1"
       inkscape:vp_y="0 : 1000 : 0"
       inkscape:vp_x="0 : 0.5 : 1"
       sodipodi:type="inkscape:persp3d" />
    <inkscape:perspective
       id="perspective3764"
       inkscape:persp3d-origin="0.5 : 0.33333333 : 1"
       inkscape:vp_z="1 : 0.5 : 1"
       inkscape:vp_y="0 : 1000 : 0"
       inkscape:vp_x="0 : 0.5 : 1"
       sodipodi:type="inkscape:persp3d" />
    <inkscape:perspective
       id="perspective3863"
       inkscape:persp3d-origin="0.5 : 0.33333333 : 1"
       inkscape:vp_z="1 : 0.5 : 1"
       inkscape:vp_y="0 : 1000 : 0"
       inkscape:vp_x="0 : 0.5 : 1"
       sodipodi:type="inkscape:persp3d" />
    <inkscape:perspective
       id="perspective3930"
       inkscape:persp3d-origin="0.5 : 0.33333333 : 1"
       inkscape:vp_z="1 : 0.5 : 1"
       inkscape:vp_y="0 : 1000 : 0"
       inkscape:vp_x="0 : 0.5 : 1"
       sodipodi:type="inkscape:persp3d" />
    <inkscape:perspective
       id="perspective3964"
       inkscape:persp3d-origin="0.5 : 0.33333333 : 1"
       inkscape:vp_z="1 : 0.5 : 1"
       inkscape:vp_y="0 : 1000 : 0"
       inkscape:vp_x="0 : 0.5 : 1"
       sodipodi:type="inkscape:persp3d" />
    <inkscape:perspective
       id="perspective4004"
       inkscape:persp3d-origin="0.5 : 0.33333333 : 1"
       inkscape:vp_z="1 : 0.5 : 1"
       inkscape:vp_y="0 : 1000 : 0"
       inkscape:vp_x="0 : 0.5 : 1"
       sodipodi:type="inkscape:persp3d" />
    <inkscape:perspective
       id="perspective4037"
       inkscape:persp3d-origin="0.5 : 0.33333333 : 1"
       inkscape:vp_z="1 : 0.5 : 1"
       inkscape:vp_y="0 : 1000 : 0"
       inkscape:vp_x="0 : 0.5 : 1"
       sodipodi:type="inkscape:persp3d" />
    <inkscape:perspective
       id="perspective3070"
       inkscape:persp3d-origin="0.5 : 0.33333333 : 1"
       inkscape:vp_z="1 : 0.5 : 1"
       inkscape:vp_y="0 : 1000 : 0"
       inkscape:vp_x="0 : 0.5 : 1"
       sodipodi:type="inkscape:persp3d" />
    <inkscape:perspective
       id="perspective3705"
       inkscape:persp3d-origin="0.5 : 0.33333333 : 1"
       inkscape:vp_z="1 : 0.5 : 1"
       inkscape:vp_y="0 : 1000 : 0"
       inkscape:vp_x="0 : 0.5 : 1"
       sodipodi:type="inkscape:persp3d" />
    <inkscape:perspective
       id="perspective3733"
       inkscape:persp3d-origin="0.5 : 0.33333333 : 1"
       inkscape:vp_z="1 : 0.5 : 1"
       inkscape:vp_y="0 : 1000 : 0"
       inkscape:vp_x="0 : 0.5 : 1"
       sodipodi:type="inkscape:persp3d" />
    <inkscape:perspective
       id="perspective3802"
       inkscape:persp3d-origin="0.5 : 0.33333333 : 1"
       inkscape:vp_z="1 : 0.5 : 1"
       inkscape:vp_y="0 : 1000 : 0"
       inkscape:vp_x="0 : 0.5 : 1"
       sodipodi:type="inkscape:persp3d" />
    <inkscape:perspective
       id="perspective3824"
       inkscape:persp3d-origin="0.5 : 0.33333333 : 1"
       inkscape:vp_z="1 : 0.5 : 1"
       inkscape:vp_y="0 : 1000 : 0"
       inkscape:vp_x="0 : 0.5 : 1"
       sodipodi:type="inkscape:persp3d" />
    <inkscape:perspective
       id="perspective3848"
       inkscape:persp3d-origin="0.5 : 0.33333333 : 1"
       inkscape:vp_z="1 : 0.5 : 1"
       inkscape:vp_y="0 : 1000 : 0"
       inkscape:vp_x="0 : 0.5 : 1"
       sodipodi:type="inkscape:persp3d" />
    <inkscape:perspective
       id="perspective3874"
       inkscape:persp3d-origin="0.5 : 0.33333333 : 1"
       inkscape:vp_z="1 : 0.5 : 1"
       inkscape:vp_y="0 : 1000 : 0"
       inkscape:vp_x="0 : 0.5 : 1"
       sodipodi:type="inkscape:persp3d" />
    <inkscape:perspective
       id="perspective3898"
       inkscape:persp3d-origin="0.5 : 0.33333333 : 1"
       inkscape:vp_z="1 : 0.5 : 1"
       inkscape:vp_y="0 : 1000 : 0"
       inkscape:vp_x="0 : 0.5 : 1"
       sodipodi:type="inkscape:persp3d" />
    <inkscape:perspective
       id="perspective3934"
       inkscape:persp3d-origin="0.5 : 0.33333333 : 1"
       inkscape:vp_z="1 : 0.5 : 1"
       inkscape:vp_y="0 : 1000 : 0"
       inkscape:vp_x="0 : 0.5 : 1"
       sodipodi:type="inkscape:persp3d" />
    <inkscape:perspective
       id="perspective3967"
       inkscape:persp3d-origin="0.5 : 0.33333333 : 1"
       inkscape:vp_z="1 : 0.5 : 1"
       inkscape:vp_y="0 : 1000 : 0"
       inkscape:vp_x="0 : 0.5 : 1"
       sodipodi:type="inkscape:persp3d" />
    <inkscape:perspective
       id="perspective3991"
       inkscape:persp3d-origin="0.5 : 0.33333333 : 1"
       inkscape:vp_z="1 : 0.5 : 1"
       inkscape:vp_y="0 : 1000 : 0"
       inkscape:vp_x="0 : 0.5 : 1"
       sodipodi:type="inkscape:persp3d" />
    <inkscape:perspective
       id="perspective4013"
       inkscape:persp3d-origin="0.5 : 0.33333333 : 1"
       inkscape:vp_z="1 : 0.5 : 1"
       inkscape:vp_y="0 : 1000 : 0"
       inkscape:vp_x="0 : 0.5 : 1"
       sodipodi:type="inkscape:persp3d" />
    <inkscape:perspective
       id="perspective4051"
       inkscape:persp3d-origin="0.5 : 0.33333333 : 1"
       inkscape:vp_z="1 : 0.5 : 1"
       inkscape:vp_y="0 : 1000 : 0"
       inkscape:vp_x="0 : 0.5 : 1"
       sodipodi:type="inkscape:persp3d" />
    <inkscape:perspective
       id="perspective4077"
       inkscape:persp3d-origin="0.5 : 0.33333333 : 1"
       inkscape:vp_z="1 : 0.5 : 1"
       inkscape:vp_y="0 : 1000 : 0"
       inkscape:vp_x="0 : 0.5 : 1"
       sodipodi:type="inkscape:persp3d" />
    <inkscape:perspective
       id="perspective4105"
       inkscape:persp3d-origin="0.5 : 0.33333333 : 1"
       inkscape:vp_z="1 : 0.5 : 1"
       inkscape:vp_y="0 : 1000 : 0"
       inkscape:vp_x="0 : 0.5 : 1"
       sodipodi:type="inkscape:persp3d" />
    <inkscape:perspective
       id="perspective4129"
       inkscape:persp3d-origin="0.5 : 0.33333333 : 1"
       inkscape:vp_z="1 : 0.5 : 1"
       inkscape:vp_y="0 : 1000 : 0"
       inkscape:vp_x="0 : 0.5 : 1"
       sodipodi:type="inkscape:persp3d" />
    <inkscape:perspective
       id="perspective4175"
       inkscape:persp3d-origin="0.5 : 0.33333333 : 1"
       inkscape:vp_z="1 : 0.5 : 1"
       inkscape:vp_y="0 : 1000 : 0"
       inkscape:vp_x="0 : 0.5 : 1"
       sodipodi:type="inkscape:persp3d" />
    <inkscape:perspective
       id="perspective4197"
       inkscape:persp3d-origin="0.5 : 0.33333333 : 1"
       inkscape:vp_z="1 : 0.5 : 1"
       inkscape:vp_y="0 : 1000 : 0"
       inkscape:vp_x="0 : 0.5 : 1"
       sodipodi:type="inkscape:persp3d" />
    <inkscape:perspective
       id="perspective4224"
       inkscape:persp3d-origin="0.5 : 0.33333333 : 1"
       inkscape:vp_z="1 : 0.5 : 1"
       inkscape:vp_y="0 : 1000 : 0"
       inkscape:vp_x="0 : 0.5 : 1"
       sodipodi:type="inkscape:persp3d" />
    <inkscape:perspective
       id="perspective4252"
       inkscape:persp3d-origin="0.5 : 0.33333333 : 1"
       inkscape:vp_z="1 : 0.5 : 1"
       inkscape:vp_y="0 : 1000 : 0"
       inkscape:vp_x="0 : 0.5 : 1"
       sodipodi:type="inkscape:persp3d" />
    <inkscape:perspective
       id="perspective4274"
       inkscape:persp3d-origin="0.5 : 0.33333333 : 1"
       inkscape:vp_z="1 : 0.5 : 1"
       inkscape:vp_y="0 : 1000 : 0"
       inkscape:vp_x="0 : 0.5 : 1"
       sodipodi:type="inkscape:persp3d" />
    <inkscape:perspective
       id="perspective4296"
       inkscape:persp3d-origin="0.5 : 0.33333333 : 1"
       inkscape:vp_z="1 : 0.5 : 1"
       inkscape:vp_y="0 : 1000 : 0"
       inkscape:vp_x="0 : 0.5 : 1"
       sodipodi:type="inkscape:persp3d" />
    <inkscape:perspective
       id="perspective4333"
       inkscape:persp3d-origin="0.5 : 0.33333333 : 1"
       inkscape:vp_z="1 : 0.5 : 1"
       inkscape:vp_y="0 : 1000 : 0"
       inkscape:vp_x="0 : 0.5 : 1"
       sodipodi:type="inkscape:persp3d" />
    <inkscape:perspective
       id="perspective4355"
       inkscape:persp3d-origin="0.5 : 0.33333333 : 1"
       inkscape:vp_z="1 : 0.5 : 1"
       inkscape:vp_y="0 : 1000 : 0"
       inkscape:vp_x="0 : 0.5 : 1"
       sodipodi:type="inkscape:persp3d" />
    <inkscape:perspective
       id="perspective4387"
       inkscape:persp3d-origin="0.5 : 0.33333333 : 1"
       inkscape:vp_z="1 : 0.5 : 1"
       inkscape:vp_y="0 : 1000 : 0"
       inkscape:vp_x="0 : 0.5 : 1"
       sodipodi:type="inkscape:persp3d" />
    <inkscape:perspective
       id="perspective4432"
       inkscape:persp3d-origin="0.5 : 0.33333333 : 1"
       inkscape:vp_z="1 : 0.5 : 1"
       inkscape:vp_y="0 : 1000 : 0"
       inkscape:vp_x="0 : 0.5 : 1"
       sodipodi:type="inkscape:persp3d" />
    <inkscape:perspective
       id="perspective4463"
       inkscape:persp3d-origin="0.5 : 0.33333333 : 1"
       inkscape:vp_z="1 : 0.5 : 1"
       inkscape:vp_y="0 : 1000 : 0"
       inkscape:vp_x="0 : 0.5 : 1"
       sodipodi:type="inkscape:persp3d" />
    <inkscape:perspective
       id="perspective4496"
       inkscape:persp3d-origin="0.5 : 0.33333333 : 1"
       inkscape:vp_z="1 : 0.5 : 1"
       inkscape:vp_y="0 : 1000 : 0"
       inkscape:vp_x="0 : 0.5 : 1"
       sodipodi:type="inkscape:persp3d" />
    <inkscape:perspective
       id="perspective4522"
       inkscape:persp3d-origin="0.5 : 0.33333333 : 1"
       inkscape:vp_z="1 : 0.5 : 1"
       inkscape:vp_y="0 : 1000 : 0"
       inkscape:vp_x="0 : 0.5 : 1"
       sodipodi:type="inkscape:persp3d" />
    <inkscape:perspective
       id="perspective4549"
       inkscape:persp3d-origin="0.5 : 0.33333333 : 1"
       inkscape:vp_z="1 : 0.5 : 1"
       inkscape:vp_y="0 : 1000 : 0"
       inkscape:vp_x="0 : 0.5 : 1"
       sodipodi:type="inkscape:persp3d" />
    <inkscape:perspective
       id="perspective4576"
       inkscape:persp3d-origin="0.5 : 0.33333333 : 1"
       inkscape:vp_z="1 : 0.5 : 1"
       inkscape:vp_y="0 : 1000 : 0"
       inkscape:vp_x="0 : 0.5 : 1"
       sodipodi:type="inkscape:persp3d" />
    <inkscape:perspective
       id="perspective4598"
       inkscape:persp3d-origin="0.5 : 0.33333333 : 1"
       inkscape:vp_z="1 : 0.5 : 1"
       inkscape:vp_y="0 : 1000 : 0"
       inkscape:vp_x="0 : 0.5 : 1"
       sodipodi:type="inkscape:persp3d" />
    <inkscape:perspective
       id="perspective4620"
       inkscape:persp3d-origin="0.5 : 0.33333333 : 1"
       inkscape:vp_z="1 : 0.5 : 1"
       inkscape:vp_y="0 : 1000 : 0"
       inkscape:vp_x="0 : 0.5 : 1"
       sodipodi:type="inkscape:persp3d" />
    <inkscape:perspective
       id="perspective4646"
       inkscape:persp3d-origin="0.5 : 0.33333333 : 1"
       inkscape:vp_z="1 : 0.5 : 1"
       inkscape:vp_y="0 : 1000 : 0"
       inkscape:vp_x="0 : 0.5 : 1"
       sodipodi:type="inkscape:persp3d" />
    <inkscape:perspective
       id="perspective4670"
       inkscape:persp3d-origin="0.5 : 0.33333333 : 1"
       inkscape:vp_z="1 : 0.5 : 1"
       inkscape:vp_y="0 : 1000 : 0"
       inkscape:vp_x="0 : 0.5 : 1"
       sodipodi:type="inkscape:persp3d" />
    <inkscape:perspective
       id="perspective4692"
       inkscape:persp3d-origin="0.5 : 0.33333333 : 1"
       inkscape:vp_z="1 : 0.5 : 1"
       inkscape:vp_y="0 : 1000 : 0"
       inkscape:vp_x="0 : 0.5 : 1"
       sodipodi:type="inkscape:persp3d" />
    <inkscape:perspective
       id="perspective4714"
       inkscape:persp3d-origin="0.5 : 0.33333333 : 1"
       inkscape:vp_z="1 : 0.5 : 1"
       inkscape:vp_y="0 : 1000 : 0"
       inkscape:vp_x="0 : 0.5 : 1"
       sodipodi:type="inkscape:persp3d" />
    <inkscape:perspective
       id="perspective4736"
       inkscape:persp3d-origin="0.5 : 0.33333333 : 1"
       inkscape:vp_z="1 : 0.5 : 1"
       inkscape:vp_y="0 : 1000 : 0"
       inkscape:vp_x="0 : 0.5 : 1"
       sodipodi:type="inkscape:persp3d" />
  </defs>
  <sodipodi:namedview
     id="base"
     pagecolor="#ffffff"
     bordercolor="#666666"
     borderopacity="1.0"
     inkscape:pageopacity="0.0"
     inkscape:pageshadow="2"
     inkscape:zoom="0.056568543"
     inkscape:cx="-5465.4313"
     inkscape:cy="2368.0416"
     inkscape:document-units="mm"
     inkscape:current-layer="layer1"
     showgrid="false"
     showguides="true"
     inkscape:guide-bbox="true"
     inkscape:window-width="1440"
     inkscape:window-height="827"
     inkscape:window-x="0"
     inkscape:window-y="24"
     inkscape:window-maximized="1"
     showborder="false"
     inkscape:showpageshadow="false"
     units="mm"
     inkscape:snap-grids="true"
     guidetolerance="20"
     gridtolerance="10">
    <sodipodi:guide
       orientation="1,0"
       position="0,1496.238"
       id="guide3665" />
    <sodipodi:guide
       orientation="1,0"
       position="0,1496.238"
       id="guide3667" />
    <sodipodi:guide
       orientation="1,0"
       position="0,1496.238"
       id="guide3669" />
    <sodipodi:guide
       orientation="1,0"
       position="0,1496.238"
       id="guide3671" />
    <sodipodi:guide
       orientation="0,1"
       position="659.02352,1417.3228"
       id="guide3675" />
    <sodipodi:guide
       orientation="1,0"
       position="1119.685,1666"
       id="guide3677" />
    <sodipodi:guide
       orientation="0,1"
       position="559.84252,1169.2913"
       id="guide3683" />
    <sodipodi:guide
       orientation="0,1"
       position="-29,886"
       id="guide3753" />
    <sodipodi:guide
       orientation="0,1"
       position="-329.6875,1346.875"
       id="guide4660" />
    <inkscape:grid
       type="xygrid"
       id="grid4397"
       empspacing="4"
       visible="true"
       enabled="true"
       snapvisiblegridlinesonly="true"
       units="mm"
       dotted="false"
       spacingx="1mm"
       spacingy="1mm" />
    <sodipodi:guide
       orientation="-0.8660254,0.5"
       position="559.84252,1169.2913"
       id="guide4932" />
    <sodipodi:guide
       orientation="0.8660254,0.5"
       position="559.84252,1169.2913"
       id="guide4936" />
    <sodipodi:guide
       orientation="1,0"
       position="70.866142,401.5625"
       id="guide4962" />
    <sodipodi:guide
       orientation="1,0"
       position="1047.4019,983.32037"
       id="guide4964" />
  </sodipodi:namedview>
  <metadata
     id="metadata7">
    <rdf:RDF>
      <cc:Work
         rdf:about="">
        <dc:format>image/svg+xml</dc:format>
        <dc:type
           rdf:resource="http://purl.org/dc/dcmitype/StillImage" />
        <dc:title></dc:title>
      </cc:Work>
    </rdf:RDF>
  </metadata>
  <g
     inkscape:label="Layer 1"
     inkscape:groupmode="layer"
     id="layer1"
     transform="translate(0,1052.3615)">
    <g
       id="g3900" />
    <path
       style="fill:#d4aa00;fill-opacity:1;stroke:none"
       d="m -2261.375,2895.5 c -6.8085,0 -12.2812,5.2266 -12.2812,11.7188 l 0,153.7187 c 0,6.4922 5.4727,11.7187 12.2812,11.7187 l 506.9062,0 c 6.8085,0 12.2813,-5.2265 12.2813,-11.7187 l 0,-153.7187 c 0,-6.4922 -5.4728,-11.7188 -12.2813,-11.7188 l -506.9062,0 z m 118.3438,126.7188 c 5.8707,0 10.6249,4.7542 10.625,10.625 0,5.8707 -4.7543,10.625 -10.625,10.625 -5.8708,0 -10.625,-4.7543 -10.625,-10.625 0,-5.8708 4.7542,-10.625 10.625,-10.625 z m 135.0937,0 c 5.8707,0 10.6563,4.7542 10.6563,10.625 0,5.8707 -4.7856,10.625 -10.6563,10.625 -5.8707,0 -10.625,-4.7543 -10.625,-10.625 0,-5.8708 4.7543,-10.625 10.625,-10.625 z m 144.9063,0 c 5.8707,0 10.6249,4.7542 10.625,10.625 0,5.8707 -4.7543,10.625 -10.625,10.625 -5.8708,0 -10.625,-4.7543 -10.625,-10.625 0,-5.8708 4.7542,-10.625 10.625,-10.625 z"
       transform="translate(1000.4689,-2439.4782)"
       id="rect4214"
       inkscape:connector-curvature="0" />
    <path
       style="fill:#ff2a2a;fill-opacity:1;stroke:none"
       d="m -2951.5625,2545.3125 c -4.0125,0 -7.25,2.9837 -7.25,6.6563 l 0,9.625 0,1.4374 0,63.9688 0,1.9062 0,9.1876 c 0,3.6725 3.2375,6.625 7.25,6.625 l 410.7187,0 c 4.0125,0 7.2501,-2.9525 7.25,-6.625 l 0,-9.1876 0,-1.9062 0,-63.9688 0,-1.4374 0,-9.625 c 1e-4,-3.6726 -3.2375,-6.6563 -7.25,-6.6563 l -410.7187,0 z m 46.0937,32.2187 c 9.7836,0 17.6876,7.9342 17.6876,17.7188 0,9.7846 -7.9041,17.7187 -17.6876,17.7188 -9.7833,0 -17.7187,-7.9342 -17.7187,-17.7188 0,-9.7846 7.9353,-17.7188 17.7187,-17.7188 z m 318.6876,0 c 9.7833,0 17.7187,7.9342 17.7187,17.7188 0,9.7846 -7.9353,17.7187 -17.7187,17.7188 -9.7836,0 -17.6876,-7.9342 -17.6876,-17.7188 0,-9.7846 7.9041,-17.7188 17.6876,-17.7188 z m -158,7.0938 c 5.8699,0 10.6248,4.7543 10.625,10.625 0,5.8707 -4.7551,10.625 -10.625,10.625 -5.8702,0 -10.625,-4.7543 -10.625,-10.625 0,-5.8707 4.7548,-10.625 10.625,-10.625 z"
       transform="translate(1685.6253,-2422.2034)"
       id="rect4313-3"
       inkscape:connector-curvature="0" />
    <path
       style="fill:#ff2a2a;fill-opacity:1;stroke:none"
       d="m -3000.5938,2168.9375 c -6.6363,0 -11.25,3.776 -11.25,10.625 l 0,13.8437 0,0.25 0,66.9376 -0.062,0 0,67.3124 531.5,0 0,-67.1874 0.062,0 0,-67.3126 -0.062,0 0.062,-13.8437 c 2e-4,-7.1252 -4.6135,-10.625 -11.25,-10.625 z m 95.125,40.4063 c 9.7846,0 17.7188,7.9341 17.7188,17.7187 0,9.7846 -7.9342,17.7187 -17.7188,17.7187 -9.7844,0 -17.7187,-7.9341 -17.7187,-17.7187 0,-9.7846 7.9342,-17.7187 17.7187,-17.7187 z m 318.75,0 c 9.7846,0 17.7188,7.9341 17.7188,17.7187 0,9.7846 -7.9342,17.7187 -17.7188,17.7187 -9.7844,0 -17.7187,-7.9341 -17.7187,-17.7187 0,-9.7846 7.9342,-17.7187 17.7187,-17.7187 z m -158.0312,7.0937 c 5.8707,0 10.625,4.7543 10.625,10.625 0,5.8707 -4.7543,10.625 -10.625,10.625 -5.8707,0 -10.625,-4.7543 -10.625,-10.625 0,-5.8707 4.7543,-10.625 10.625,-10.625 z"
       transform="translate(1738.7186,-2497.8659)"
       id="rect4313-2"
       inkscape:connector-curvature="0"
       sodipodi:nodetypes="sscccccccccccsssssssssssssssss" />
    <path
       style="fill:#ff2a2a;fill-opacity:1;stroke:none"
       d="m -2951.5625,2545.3125 c -4.0125,0 -7.25,2.9837 -7.25,6.6563 l 0,9.625 0,1.4374 0,63.9688 0,1.9062 0,9.1876 c 0,3.6725 3.2375,6.625 7.25,6.625 l 410.7187,0 c 4.0125,0 7.2501,-2.9525 7.25,-6.625 l 0,-9.1876 0,-1.9062 0,-63.9688 0,-1.4374 0,-9.625 c 1e-4,-3.6726 -3.2375,-6.6563 -7.25,-6.6563 l -410.7187,0 z m 46.0937,32.2187 c 9.7836,0 17.6876,7.9342 17.6876,17.7188 0,9.7846 -7.9041,17.7187 -17.6876,17.7188 -9.7833,0 -17.7187,-7.9342 -17.7187,-17.7188 0,-9.7846 7.9353,-17.7188 17.7187,-17.7188 z m 318.6876,0 c 9.7833,0 17.7187,7.9342 17.7187,17.7188 0,9.7846 -7.9353,17.7187 -17.7187,17.7188 -9.7836,0 -17.6876,-7.9342 -17.6876,-17.7188 0,-9.7846 7.9041,-17.7188 17.6876,-17.7188 z m -158,7.0938 c 5.8699,0 10.6248,4.7543 10.625,10.625 0,5.8707 -4.7551,10.625 -10.625,10.625 -5.8702,0 -10.625,-4.7543 -10.625,-10.625 0,-5.8707 4.7548,-10.625 10.625,-10.625 z"
       transform="translate(1685.6253,-2255.7471)"
       id="rect4313-3-9"
       inkscape:connector-curvature="0" />
    <path
       style="fill:#d4aa00;fill-opacity:1;stroke:none"
       d="m -2261.375,2895.5 c -6.8085,0 -12.2812,5.2266 -12.2812,11.7188 l 0,153.7187 c 0,6.4922 5.4727,11.7187 12.2812,11.7187 l 506.9062,0 c 6.8085,0 12.2813,-5.2265 12.2813,-11.7187 l 0,-153.7187 c 0,-6.4922 -5.4728,-11.7188 -12.2813,-11.7188 l -506.9062,0 z m 118.3438,126.7188 c 5.8707,0 10.6249,4.7542 10.625,10.625 0,5.8707 -4.7543,10.625 -10.625,10.625 -5.8708,0 -10.625,-4.7543 -10.625,-10.625 0,-5.8708 4.7542,-10.625 10.625,-10.625 z m 135.0937,0 c 5.8707,0 10.6563,4.7542 10.6563,10.625 0,5.8707 -4.7856,10.625 -10.6563,10.625 -5.8707,0 -10.625,-4.7543 -10.625,-10.625 0,-5.8708 4.7543,-10.625 10.625,-10.625 z m 144.9063,0 c 5.8707,0 10.6249,4.7542 10.625,10.625 0,5.8707 -4.7543,10.625 -10.625,10.625 -5.8708,0 -10.625,-4.7543 -10.625,-10.625 0,-5.8708 4.7542,-10.625 10.625,-10.625 z"
       transform="translate(996.1406,-2195.272)"
       id="rect4214-8"
       inkscape:connector-curvature="0" />
    <rect
       style="fill:#ffaaaa;fill-opacity:1;stroke:none"
       id="rect4890"
       width="1119.6851"
       height="1452.7559"
       x="0"
       y="-364.95993"
       ry="70.447884"
       rx="70.447884" />
    <rect
       style="fill:#ff00ff;fill-opacity:1;stroke:none"
       id="rect4326"
       width="159.44882"
       height="67.322838"
       x="346.29483"
       y="427.29239"
       transform="matrix(0.8660254,0.5,-0.5,0.8660254,0,0)" />
    <rect
       style="fill:#ff00ff;fill-opacity:1;stroke:none"
       id="rect4326-7"
       width="159.44882"
       height="67.322838"
       x="465.21832"
       y="984.90692"
       transform="matrix(0.8660254,-0.5,0.5,0.8660254,0,0)" />
    <rect
       style="fill:#ff00ff;fill-opacity:1;stroke:none"
       id="rect4395"
       width="354.33075"
       height="354.33072"
       x="694.48816"
       y="-293.81747"
       rx="14.591547"
       ry="14.591547" />
    <rect
       style="fill:#ff00ff;fill-opacity:1;stroke:none"
       id="rect4395-2"
       width="354.33075"
       height="354.33072"
       x="70.866142"
       y="-293.81921"
       rx="14.591547"
       ry="14.591547" />
    <rect
       style="fill:#ff00ff;fill-opacity:1;stroke:none"
       id="rect4888"
       width="102.75591"
       height="102.75591"
       x="507.8125"
       y="-169.14304" />
    <path
       style="fill:#ff00ff;fill-opacity:1;stroke:none"
       d="m 523.34253,27.966031 c -19.0437,0 -34.375,16.725 -34.375,37.5 l 0,41.093699 -194.875,0 0,67.3126 35.4375,0 0,680.3124 -35.4375,0 0,67.3438 150.5938,0 0,81.03117 c 0,13.8501 12.5437,25 28.125,25 l 174.0625,0 c 15.5812,0 28.125,-11.1499 28.125,-25 l 0,-81.03117 150.5937,0 0,-67.3438 -35.4375,0 0,-680.3124 35.4375,0 0,-67.3126 -194.875,0 0,-41.093699 c 0,-20.775 -15.3312,-37.5 -34.375,-37.5 l -73,0 z"
       id="rect3759-4-3"
       inkscape:connector-curvature="0" />
    <path
       sodipodi:type="arc"
       style="fill:#ff00ff;fill-opacity:1;stroke:none"
       id="path4910-8"
       sodipodi:cx="-313.2262"
       sodipodi:cy="883.30786"
       sodipodi:rx="20.439806"
       sodipodi:ry="20.439806"
       d="m -292.78639,883.30786 c 0,11.28859 -9.15121,20.43981 -20.43981,20.43981 -11.28859,0 -20.4398,-9.15122 -20.4398,-20.43981 0,-11.28859 9.15121,-20.4398 20.4398,-20.4398 11.2886,0 20.43981,9.15121 20.43981,20.4398 z"
       transform="matrix(0.78008969,0,0,0.78008969,428.80783,-154.43629)" />
    <path
       sodipodi:type="arc"
       style="fill:#ff00ff;fill-opacity:1;stroke:none"
       id="path4910-8-5"
       sodipodi:cx="-313.2262"
       sodipodi:cy="883.30786"
       sodipodi:rx="20.439806"
       sodipodi:ry="20.439806"
       d="m -292.78639,883.30786 c 0,11.28859 -9.15121,20.43981 -20.43981,20.43981 -11.28859,0 -20.4398,-9.15122 -20.4398,-20.43981 0,-11.28859 9.15121,-20.4398 20.4398,-20.4398 11.2886,0 20.43981,9.15121 20.43981,20.4398 z"
       transform="matrix(0.78008969,0,0,0.78008969,1179.1212,-153.76833)" />
    <path
       style="fill:#ff00ff;fill-opacity:1;stroke:none"
       d="M 98.830771,681.56733 213.6565,744.09515 c 16.72481,9.10742 34.375,15.33125 34.375,34.375 l 0,214.71457 c 0,19.04378 -15.33125,34.37498 -34.375,34.37498 l -108.41536,0 c -19.043748,0 -34.374998,-15.3312 -34.374998,-34.37498 l 0,-286.51648 c 0,-19.04375 11.239816,-34.20832 27.964629,-25.10091 z"
       id="rect4958"
       inkscape:connector-curvature="0"
       sodipodi:nodetypes="sssssssss" />
    <path
       style="fill:#ff00ff;fill-opacity:1;stroke:none"
       d="m 1020.8543,681.56737 -114.82576,62.52778 c -16.7248,9.10742 -34.375,15.33125 -34.375,34.375 l 0,214.71457 c 0,19.04378 15.3312,34.37498 34.375,34.37498 l 108.41536,0 c 19.0438,0 34.375,-15.3312 34.375,-34.37498 l 0,-286.51645 c 0,-19.0438 -11.2398,-34.2084 -27.9646,-25.1009 z"
       id="rect4958-9"
       inkscape:connector-curvature="0"
       sodipodi:nodetypes="sssssssss" />
    <path
       inkscape:connector-curvature="0"
       style="fill:#d4aa00;fill-opacity:1;stroke:none"
       d="m -204.46875,-329.60586 c -13.296,0 -24,9.8118 -24,22 l 0,403.18745 24,0 111.4375,0 24,0 0,-403.18745 c 0,-12.1882 -10.704,-22 -24,-22 z m 55.71875,40 c 15.65532,0 28.34375,12.68845 28.34375,28.34375 0,15.6553 -12.68843,28.34375 -28.34375,28.34375 -15.65532,0 -28.34375,-12.68845 -28.34375,-28.34375 0,-15.6553 12.68843,-28.34365 28.34375,-28.34375 z m 0,94 c 8.80612,0 15.9375,7.16263 15.9375,15.96875 0,8.80612 -7.13138,15.9375 -15.9375,15.9375 -8.80612,0 -15.9375,-7.13138 -15.9375,-15.9375 0,-8.80612 7.13138,-15.96875 15.9375,-15.96875 z"
       id="rect3695-5"
       sodipodi:nodetypes="ssccccsssssssssssss" />
    <rect
       style="fill:#ffaaaa;fill-opacity:1;stroke:none"
       id="rect4890-5"
       width="1119.6851"
       height="1452.7559"
       x="1360"
       y="-364.95993"
       ry="70.447884"
       rx="70.447884" />
    <rect
       style="fill:#ff00ff;fill-opacity:1;stroke:none"
       id="rect4326-77"
       width="159.44882"
       height="67.322838"
       x="1524.0902"
       y="-252.7077"
       transform="matrix(0.8660254,0.5,-0.5,0.8660254,0,0)" />
    <rect
       style="fill:#ff00ff;fill-opacity:1;stroke:none"
       id="rect4326-7-2"
       width="159.44882"
       height="67.322838"
       x="1643.0142"
       y="1664.9069"
       transform="matrix(0.8660254,-0.5,0.5,0.8660254,0,0)" />
    <path
       style="fill:#ff00ff;fill-opacity:1;stroke:none"
       d="M 1445.4688 758.53125 C 1437.385 758.53125 1430.875 765.04128 1430.875 773.125 L 1430.875 1098.2812 C 1430.875 1106.365 1437.385 1112.875 1445.4688 1112.875 L 1512.5 1112.875 L 1512.5 1593.75 C 1512.5 1601.8337 1519.01 1608.3438 1527.0938 1608.3438 L 1568.7812 1608.3438 C 1576.865 1608.3438 1583.375 1601.8337 1583.375 1593.75 L 1583.375 1112.875 L 1770.5938 1112.875 C 1778.6775 1112.875 1785.1875 1106.365 1785.1875 1098.2812 L 1785.1875 1056.5938 L 2054.5 1056.5938 L 2054.5 1098.2812 C 2054.5 1106.365 2061.01 1112.875 2069.0938 1112.875 L 2262.6875 1112.875 L 2262.6875 1593.75 C 2262.6875 1601.8337 2269.1975 1608.3438 2277.2812 1608.3438 L 2318.9688 1608.3438 C 2327.0525 1608.3438 2333.5625 1601.8337 2333.5625 1593.75 L 2333.5625 1112.875 L 2394.2188 1112.875 C 2402.3025 1112.875 2408.8125 1106.365 2408.8125 1098.2812 L 2408.8125 773.125 C 2408.8125 765.04128 2402.3025 758.53125 2394.2188 758.53125 L 2069.0938 758.53125 C 2061.01 758.53125 2054.5 765.04128 2054.5 773.125 L 2054.5 985.71875 L 1970.5625 985.71875 L 1970.5625 883.21875 L 1867.8125 883.21875 L 1867.8125 985.71875 L 1785.1875 985.71875 L 1785.1875 773.125 C 1785.1875 765.04128 1778.6775 758.53125 1770.5938 758.53125 L 1445.4688 758.53125 z "
       transform="translate(0,-1052.3615)"
       id="rect4395-73" />
    <path
       style="fill:#ff00ff;fill-opacity:1;stroke:none"
       d="m 1883.3425,27.965975 c -19.0437,0 -34.375,16.725 -34.375,37.5 l 0,41.093705 -194.875,0 0,67.3126 35.4375,0 0,680.31244 -35.4375,0 0,67.3438 150.5938,0 0,81.03108 c 0,13.8501 12.5437,25 28.125,25 l 174.0625,0 c 15.5812,0 28.125,-11.1499 28.125,-25 l 0,-81.03108 150.5937,0 0,-67.3438 -35.4375,0 0,-680.31244 35.4375,0 0,-67.3126 -194.875,0 0,-41.093705 c 0,-20.775 -15.3312,-37.5 -34.375,-37.5 l -73,0 z"
       id="rect3759-4-3-5"
       inkscape:connector-curvature="0" />
    <path
       sodipodi:type="arc"
       style="fill:#ff00ff;fill-opacity:1;stroke:none"
       id="path4910-8-9"
       sodipodi:cx="-313.2262"
       sodipodi:cy="883.30786"
       sodipodi:rx="20.439806"
       sodipodi:ry="20.439806"
       d="m -292.78639,883.30786 c 0,11.28859 -9.15121,20.43981 -20.43981,20.43981 -11.28859,0 -20.4398,-9.15122 -20.4398,-20.43981 0,-11.28859 9.15121,-20.4398 20.4398,-20.4398 11.2886,0 20.43981,9.15121 20.43981,20.4398 z"
       transform="matrix(0.78008969,0,0,0.78008969,1788.8078,-154.43634)" />
    <path
       sodipodi:type="arc"
       style="fill:#ff00ff;fill-opacity:1;stroke:none"
       id="path4910-8-5-1"
       sodipodi:cx="-313.2262"
       sodipodi:cy="883.30786"
       sodipodi:rx="20.439806"
       sodipodi:ry="20.439806"
       d="m -292.78639,883.30786 c 0,11.28859 -9.15121,20.43981 -20.43981,20.43981 -11.28859,0 -20.4398,-9.15122 -20.4398,-20.43981 0,-11.28859 9.15121,-20.4398 20.4398,-20.4398 11.2886,0 20.43981,9.15121 20.43981,20.4398 z"
       transform="matrix(0.78008969,0,0,0.78008969,2539.1212,-153.76838)" />
    <path
       style="fill:#ff00ff;fill-opacity:1;stroke:none"
       d="m 1458.8308,681.56732 114.8257,62.5278 c 16.7248,9.1074 34.375,15.3312 34.375,34.375 l 0,214.7146 c 0,19.04368 -15.3312,34.37488 -34.375,34.37488 l -108.4154,0 c -19.0437,0 -34.375,-15.3312 -34.375,-34.37488 l 0,-286.5165 c 0,-19.0438 11.2399,-34.2083 27.9647,-25.1009 z"
       id="rect4958-3"
       inkscape:connector-curvature="0"
       sodipodi:nodetypes="sssssssss" />
    <path
       style="fill:#ff00ff;fill-opacity:1;stroke:none"
       d="m 2380.8543,681.56732 -114.8258,62.5278 c -16.7248,9.1074 -34.375,15.3312 -34.375,34.375 l 0,214.7146 c 0,19.04368 15.3312,34.37488 34.375,34.37488 l 108.4154,0 c 19.0438,0 34.375,-15.3312 34.375,-34.37488 l 0,-286.5165 c 0,-19.0438 -11.2398,-34.2084 -27.9646,-25.1009 z"
       id="rect4958-9-1"
       inkscape:connector-curvature="0"
       sodipodi:nodetypes="sssssssss" />
    <rect
       style="fill:#ffaaaa;fill-opacity:1;stroke:none"
       id="rect4890-5-4"
       width="1119.6851"
       height="1452.7559"
       x="2677.1982"
       y="-365.85971"
       ry="70.447884"
       rx="70.447884" />
    <path
       inkscape:connector-curvature="0"
       style="fill:#d4aa00;fill-opacity:1;stroke:none"
       d="m -385.40625,-329.60586 c -13.296,0 -24,9.8118 -24,22 l 0,403.18745 24,0 111.4375,0 24,0 0,-403.18745 c 0,-12.1882 -10.704,-22 -24,-22 z m 55.71875,40 c 15.65532,0 28.34375,12.68845 28.34375,28.34375 0,15.6553 -12.68843,28.34374 -28.34375,28.34374 -15.65532,0 -28.34375,-12.68844 -28.34375,-28.34374 0,-15.6553 12.68843,-28.34365 28.34375,-28.34375 z m 0,94 c 8.80612,0 15.9375,7.16263 15.9375,15.96875 0,8.80612 -7.13138,15.9375 -15.9375,15.9375 -8.80612,0 -15.9375,-7.13138 -15.9375,-15.9375 0,-8.80612 7.13138,-15.96875 15.9375,-15.96875 z"
       id="rect3695-5-4"
       sodipodi:nodetypes="ssccccsssssssssssss" />
  </g>
</svg>
