<?xml version="1.0" encoding="UTF-8" standalone="no"?>
<!-- Created with Inkscape (http://www.inkscape.org/) -->

<svg
   xmlns:dc="http://purl.org/dc/elements/1.1/"
   xmlns:cc="http://creativecommons.org/ns#"
   xmlns:rdf="http://www.w3.org/1999/02/22-rdf-syntax-ns#"
   xmlns:svg="http://www.w3.org/2000/svg"
   xmlns="http://www.w3.org/2000/svg"
   xmlns:sodipodi="http://sodipodi.sourceforge.net/DTD/sodipodi-0.dtd"
   xmlns:inkscape="http://www.inkscape.org/namespaces/inkscape"
   width="1723.9445"
   height="1488.183"
   id="svg2"
   version="1.1"
   inkscape:version="0.48.0 r9654"
   sodipodi:docname="top.svg">
  <defs
     id="defs4">
    <inkscape:perspective
       sodipodi:type="inkscape:persp3d"
       inkscape:vp_x="0 : 526.18109 : 1"
       inkscape:vp_y="0 : 1000 : 0"
       inkscape:vp_z="744.09448 : 526.18109 : 1"
       inkscape:persp3d-origin="372.04724 : 350.78739 : 1"
       id="perspective10" />
    <inkscape:perspective
       id="perspective3602"
       inkscape:persp3d-origin="0.5 : 0.33333333 : 1"
       inkscape:vp_z="1 : 0.5 : 1"
       inkscape:vp_y="0 : 1000 : 0"
       inkscape:vp_x="0 : 0.5 : 1"
       sodipodi:type="inkscape:persp3d" />
    <inkscape:perspective
       id="perspective3630"
       inkscape:persp3d-origin="0.5 : 0.33333333 : 1"
       inkscape:vp_z="1 : 0.5 : 1"
       inkscape:vp_y="0 : 1000 : 0"
       inkscape:vp_x="0 : 0.5 : 1"
       sodipodi:type="inkscape:persp3d" />
    <inkscape:perspective
       id="perspective4874"
       inkscape:persp3d-origin="0.5 : 0.33333333 : 1"
       inkscape:vp_z="1 : 0.5 : 1"
       inkscape:vp_y="0 : 1000 : 0"
       inkscape:vp_x="0 : 0.5 : 1"
       sodipodi:type="inkscape:persp3d" />
    <inkscape:perspective
       id="perspective5137"
       inkscape:persp3d-origin="0.5 : 0.33333333 : 1"
       inkscape:vp_z="1 : 0.5 : 1"
       inkscape:vp_y="0 : 1000 : 0"
       inkscape:vp_x="0 : 0.5 : 1"
       sodipodi:type="inkscape:persp3d" />
    <inkscape:perspective
       id="perspective5178"
       inkscape:persp3d-origin="0.5 : 0.33333333 : 1"
       inkscape:vp_z="1 : 0.5 : 1"
       inkscape:vp_y="0 : 1000 : 0"
       inkscape:vp_x="0 : 0.5 : 1"
       sodipodi:type="inkscape:persp3d" />
    <inkscape:perspective
       id="perspective5206"
       inkscape:persp3d-origin="0.5 : 0.33333333 : 1"
       inkscape:vp_z="1 : 0.5 : 1"
       inkscape:vp_y="0 : 1000 : 0"
       inkscape:vp_x="0 : 0.5 : 1"
       sodipodi:type="inkscape:persp3d" />
    <inkscape:perspective
       id="perspective5299"
       inkscape:persp3d-origin="0.5 : 0.33333333 : 1"
       inkscape:vp_z="1 : 0.5 : 1"
       inkscape:vp_y="0 : 1000 : 0"
       inkscape:vp_x="0 : 0.5 : 1"
       sodipodi:type="inkscape:persp3d" />
    <inkscape:perspective
       id="perspective5339"
       inkscape:persp3d-origin="0.5 : 0.33333333 : 1"
       inkscape:vp_z="1 : 0.5 : 1"
       inkscape:vp_y="0 : 1000 : 0"
       inkscape:vp_x="0 : 0.5 : 1"
       sodipodi:type="inkscape:persp3d" />
    <inkscape:perspective
       id="perspective5339-2"
       inkscape:persp3d-origin="0.5 : 0.33333333 : 1"
       inkscape:vp_z="1 : 0.5 : 1"
       inkscape:vp_y="0 : 1000 : 0"
       inkscape:vp_x="0 : 0.5 : 1"
       sodipodi:type="inkscape:persp3d" />
    <inkscape:perspective
       id="perspective5403"
       inkscape:persp3d-origin="0.5 : 0.33333333 : 1"
       inkscape:vp_z="1 : 0.5 : 1"
       inkscape:vp_y="0 : 1000 : 0"
       inkscape:vp_x="0 : 0.5 : 1"
       sodipodi:type="inkscape:persp3d" />
    <inkscape:perspective
       id="perspective5425"
       inkscape:persp3d-origin="0.5 : 0.33333333 : 1"
       inkscape:vp_z="1 : 0.5 : 1"
       inkscape:vp_y="0 : 1000 : 0"
       inkscape:vp_x="0 : 0.5 : 1"
       sodipodi:type="inkscape:persp3d" />
    <inkscape:perspective
       id="perspective5464"
       inkscape:persp3d-origin="0.5 : 0.33333333 : 1"
       inkscape:vp_z="1 : 0.5 : 1"
       inkscape:vp_y="0 : 1000 : 0"
       inkscape:vp_x="0 : 0.5 : 1"
       sodipodi:type="inkscape:persp3d" />
    <inkscape:perspective
       id="perspective5490"
       inkscape:persp3d-origin="0.5 : 0.33333333 : 1"
       inkscape:vp_z="1 : 0.5 : 1"
       inkscape:vp_y="0 : 1000 : 0"
       inkscape:vp_x="0 : 0.5 : 1"
       sodipodi:type="inkscape:persp3d" />
    <inkscape:perspective
       id="perspective5513"
       inkscape:persp3d-origin="0.5 : 0.33333333 : 1"
       inkscape:vp_z="1 : 0.5 : 1"
       inkscape:vp_y="0 : 1000 : 0"
       inkscape:vp_x="0 : 0.5 : 1"
       sodipodi:type="inkscape:persp3d" />
    <inkscape:perspective
       id="perspective2859"
       inkscape:persp3d-origin="0.5 : 0.33333333 : 1"
       inkscape:vp_z="1 : 0.5 : 1"
       inkscape:vp_y="0 : 1000 : 0"
       inkscape:vp_x="0 : 0.5 : 1"
       sodipodi:type="inkscape:persp3d" />
    <inkscape:perspective
       id="perspective3736"
       inkscape:persp3d-origin="0.5 : 0.33333333 : 1"
       inkscape:vp_z="1 : 0.5 : 1"
       inkscape:vp_y="0 : 1000 : 0"
       inkscape:vp_x="0 : 0.5 : 1"
       sodipodi:type="inkscape:persp3d" />
    <inkscape:perspective
       id="perspective3764"
       inkscape:persp3d-origin="0.5 : 0.33333333 : 1"
       inkscape:vp_z="1 : 0.5 : 1"
       inkscape:vp_y="0 : 1000 : 0"
       inkscape:vp_x="0 : 0.5 : 1"
       sodipodi:type="inkscape:persp3d" />
    <inkscape:perspective
       id="perspective3863"
       inkscape:persp3d-origin="0.5 : 0.33333333 : 1"
       inkscape:vp_z="1 : 0.5 : 1"
       inkscape:vp_y="0 : 1000 : 0"
       inkscape:vp_x="0 : 0.5 : 1"
       sodipodi:type="inkscape:persp3d" />
    <inkscape:perspective
       id="perspective3930"
       inkscape:persp3d-origin="0.5 : 0.33333333 : 1"
       inkscape:vp_z="1 : 0.5 : 1"
       inkscape:vp_y="0 : 1000 : 0"
       inkscape:vp_x="0 : 0.5 : 1"
       sodipodi:type="inkscape:persp3d" />
    <inkscape:perspective
       id="perspective3964"
       inkscape:persp3d-origin="0.5 : 0.33333333 : 1"
       inkscape:vp_z="1 : 0.5 : 1"
       inkscape:vp_y="0 : 1000 : 0"
       inkscape:vp_x="0 : 0.5 : 1"
       sodipodi:type="inkscape:persp3d" />
    <inkscape:perspective
       id="perspective4004"
       inkscape:persp3d-origin="0.5 : 0.33333333 : 1"
       inkscape:vp_z="1 : 0.5 : 1"
       inkscape:vp_y="0 : 1000 : 0"
       inkscape:vp_x="0 : 0.5 : 1"
       sodipodi:type="inkscape:persp3d" />
    <inkscape:perspective
       id="perspective4037"
       inkscape:persp3d-origin="0.5 : 0.33333333 : 1"
       inkscape:vp_z="1 : 0.5 : 1"
       inkscape:vp_y="0 : 1000 : 0"
       inkscape:vp_x="0 : 0.5 : 1"
       sodipodi:type="inkscape:persp3d" />
    <inkscape:perspective
       id="perspective3070"
       inkscape:persp3d-origin="0.5 : 0.33333333 : 1"
       inkscape:vp_z="1 : 0.5 : 1"
       inkscape:vp_y="0 : 1000 : 0"
       inkscape:vp_x="0 : 0.5 : 1"
       sodipodi:type="inkscape:persp3d" />
    <inkscape:perspective
       id="perspective3705"
       inkscape:persp3d-origin="0.5 : 0.33333333 : 1"
       inkscape:vp_z="1 : 0.5 : 1"
       inkscape:vp_y="0 : 1000 : 0"
       inkscape:vp_x="0 : 0.5 : 1"
       sodipodi:type="inkscape:persp3d" />
    <inkscape:perspective
       id="perspective3733"
       inkscape:persp3d-origin="0.5 : 0.33333333 : 1"
       inkscape:vp_z="1 : 0.5 : 1"
       inkscape:vp_y="0 : 1000 : 0"
       inkscape:vp_x="0 : 0.5 : 1"
       sodipodi:type="inkscape:persp3d" />
    <inkscape:perspective
       id="perspective3802"
       inkscape:persp3d-origin="0.5 : 0.33333333 : 1"
       inkscape:vp_z="1 : 0.5 : 1"
       inkscape:vp_y="0 : 1000 : 0"
       inkscape:vp_x="0 : 0.5 : 1"
       sodipodi:type="inkscape:persp3d" />
    <inkscape:perspective
       id="perspective3824"
       inkscape:persp3d-origin="0.5 : 0.33333333 : 1"
       inkscape:vp_z="1 : 0.5 : 1"
       inkscape:vp_y="0 : 1000 : 0"
       inkscape:vp_x="0 : 0.5 : 1"
       sodipodi:type="inkscape:persp3d" />
    <inkscape:perspective
       id="perspective3848"
       inkscape:persp3d-origin="0.5 : 0.33333333 : 1"
       inkscape:vp_z="1 : 0.5 : 1"
       inkscape:vp_y="0 : 1000 : 0"
       inkscape:vp_x="0 : 0.5 : 1"
       sodipodi:type="inkscape:persp3d" />
    <inkscape:perspective
       id="perspective3874"
       inkscape:persp3d-origin="0.5 : 0.33333333 : 1"
       inkscape:vp_z="1 : 0.5 : 1"
       inkscape:vp_y="0 : 1000 : 0"
       inkscape:vp_x="0 : 0.5 : 1"
       sodipodi:type="inkscape:persp3d" />
    <inkscape:perspective
       id="perspective3898"
       inkscape:persp3d-origin="0.5 : 0.33333333 : 1"
       inkscape:vp_z="1 : 0.5 : 1"
       inkscape:vp_y="0 : 1000 : 0"
       inkscape:vp_x="0 : 0.5 : 1"
       sodipodi:type="inkscape:persp3d" />
    <inkscape:perspective
       id="perspective3934"
       inkscape:persp3d-origin="0.5 : 0.33333333 : 1"
       inkscape:vp_z="1 : 0.5 : 1"
       inkscape:vp_y="0 : 1000 : 0"
       inkscape:vp_x="0 : 0.5 : 1"
       sodipodi:type="inkscape:persp3d" />
    <inkscape:perspective
       id="perspective3967"
       inkscape:persp3d-origin="0.5 : 0.33333333 : 1"
       inkscape:vp_z="1 : 0.5 : 1"
       inkscape:vp_y="0 : 1000 : 0"
       inkscape:vp_x="0 : 0.5 : 1"
       sodipodi:type="inkscape:persp3d" />
    <inkscape:perspective
       id="perspective3991"
       inkscape:persp3d-origin="0.5 : 0.33333333 : 1"
       inkscape:vp_z="1 : 0.5 : 1"
       inkscape:vp_y="0 : 1000 : 0"
       inkscape:vp_x="0 : 0.5 : 1"
       sodipodi:type="inkscape:persp3d" />
    <inkscape:perspective
       id="perspective4013"
       inkscape:persp3d-origin="0.5 : 0.33333333 : 1"
       inkscape:vp_z="1 : 0.5 : 1"
       inkscape:vp_y="0 : 1000 : 0"
       inkscape:vp_x="0 : 0.5 : 1"
       sodipodi:type="inkscape:persp3d" />
    <inkscape:perspective
       id="perspective4051"
       inkscape:persp3d-origin="0.5 : 0.33333333 : 1"
       inkscape:vp_z="1 : 0.5 : 1"
       inkscape:vp_y="0 : 1000 : 0"
       inkscape:vp_x="0 : 0.5 : 1"
       sodipodi:type="inkscape:persp3d" />
    <inkscape:perspective
       id="perspective4077"
       inkscape:persp3d-origin="0.5 : 0.33333333 : 1"
       inkscape:vp_z="1 : 0.5 : 1"
       inkscape:vp_y="0 : 1000 : 0"
       inkscape:vp_x="0 : 0.5 : 1"
       sodipodi:type="inkscape:persp3d" />
    <inkscape:perspective
       id="perspective4105"
       inkscape:persp3d-origin="0.5 : 0.33333333 : 1"
       inkscape:vp_z="1 : 0.5 : 1"
       inkscape:vp_y="0 : 1000 : 0"
       inkscape:vp_x="0 : 0.5 : 1"
       sodipodi:type="inkscape:persp3d" />
    <inkscape:perspective
       id="perspective4129"
       inkscape:persp3d-origin="0.5 : 0.33333333 : 1"
       inkscape:vp_z="1 : 0.5 : 1"
       inkscape:vp_y="0 : 1000 : 0"
       inkscape:vp_x="0 : 0.5 : 1"
       sodipodi:type="inkscape:persp3d" />
    <inkscape:perspective
       id="perspective4175"
       inkscape:persp3d-origin="0.5 : 0.33333333 : 1"
       inkscape:vp_z="1 : 0.5 : 1"
       inkscape:vp_y="0 : 1000 : 0"
       inkscape:vp_x="0 : 0.5 : 1"
       sodipodi:type="inkscape:persp3d" />
    <inkscape:perspective
       id="perspective4197"
       inkscape:persp3d-origin="0.5 : 0.33333333 : 1"
       inkscape:vp_z="1 : 0.5 : 1"
       inkscape:vp_y="0 : 1000 : 0"
       inkscape:vp_x="0 : 0.5 : 1"
       sodipodi:type="inkscape:persp3d" />
    <inkscape:perspective
       id="perspective4224"
       inkscape:persp3d-origin="0.5 : 0.33333333 : 1"
       inkscape:vp_z="1 : 0.5 : 1"
       inkscape:vp_y="0 : 1000 : 0"
       inkscape:vp_x="0 : 0.5 : 1"
       sodipodi:type="inkscape:persp3d" />
    <inkscape:perspective
       id="perspective4252"
       inkscape:persp3d-origin="0.5 : 0.33333333 : 1"
       inkscape:vp_z="1 : 0.5 : 1"
       inkscape:vp_y="0 : 1000 : 0"
       inkscape:vp_x="0 : 0.5 : 1"
       sodipodi:type="inkscape:persp3d" />
    <inkscape:perspective
       id="perspective4274"
       inkscape:persp3d-origin="0.5 : 0.33333333 : 1"
       inkscape:vp_z="1 : 0.5 : 1"
       inkscape:vp_y="0 : 1000 : 0"
       inkscape:vp_x="0 : 0.5 : 1"
       sodipodi:type="inkscape:persp3d" />
    <inkscape:perspective
       id="perspective4296"
       inkscape:persp3d-origin="0.5 : 0.33333333 : 1"
       inkscape:vp_z="1 : 0.5 : 1"
       inkscape:vp_y="0 : 1000 : 0"
       inkscape:vp_x="0 : 0.5 : 1"
       sodipodi:type="inkscape:persp3d" />
    <inkscape:perspective
       id="perspective4333"
       inkscape:persp3d-origin="0.5 : 0.33333333 : 1"
       inkscape:vp_z="1 : 0.5 : 1"
       inkscape:vp_y="0 : 1000 : 0"
       inkscape:vp_x="0 : 0.5 : 1"
       sodipodi:type="inkscape:persp3d" />
    <inkscape:perspective
       id="perspective4355"
       inkscape:persp3d-origin="0.5 : 0.33333333 : 1"
       inkscape:vp_z="1 : 0.5 : 1"
       inkscape:vp_y="0 : 1000 : 0"
       inkscape:vp_x="0 : 0.5 : 1"
       sodipodi:type="inkscape:persp3d" />
    <inkscape:perspective
       id="perspective4387"
       inkscape:persp3d-origin="0.5 : 0.33333333 : 1"
       inkscape:vp_z="1 : 0.5 : 1"
       inkscape:vp_y="0 : 1000 : 0"
       inkscape:vp_x="0 : 0.5 : 1"
       sodipodi:type="inkscape:persp3d" />
    <inkscape:perspective
       id="perspective4432"
       inkscape:persp3d-origin="0.5 : 0.33333333 : 1"
       inkscape:vp_z="1 : 0.5 : 1"
       inkscape:vp_y="0 : 1000 : 0"
       inkscape:vp_x="0 : 0.5 : 1"
       sodipodi:type="inkscape:persp3d" />
    <inkscape:perspective
       id="perspective4463"
       inkscape:persp3d-origin="0.5 : 0.33333333 : 1"
       inkscape:vp_z="1 : 0.5 : 1"
       inkscape:vp_y="0 : 1000 : 0"
       inkscape:vp_x="0 : 0.5 : 1"
       sodipodi:type="inkscape:persp3d" />
    <inkscape:perspective
       id="perspective4496"
       inkscape:persp3d-origin="0.5 : 0.33333333 : 1"
       inkscape:vp_z="1 : 0.5 : 1"
       inkscape:vp_y="0 : 1000 : 0"
       inkscape:vp_x="0 : 0.5 : 1"
       sodipodi:type="inkscape:persp3d" />
    <inkscape:perspective
       id="perspective4522"
       inkscape:persp3d-origin="0.5 : 0.33333333 : 1"
       inkscape:vp_z="1 : 0.5 : 1"
       inkscape:vp_y="0 : 1000 : 0"
       inkscape:vp_x="0 : 0.5 : 1"
       sodipodi:type="inkscape:persp3d" />
    <inkscape:perspective
       id="perspective4549"
       inkscape:persp3d-origin="0.5 : 0.33333333 : 1"
       inkscape:vp_z="1 : 0.5 : 1"
       inkscape:vp_y="0 : 1000 : 0"
       inkscape:vp_x="0 : 0.5 : 1"
       sodipodi:type="inkscape:persp3d" />
    <inkscape:perspective
       id="perspective4576"
       inkscape:persp3d-origin="0.5 : 0.33333333 : 1"
       inkscape:vp_z="1 : 0.5 : 1"
       inkscape:vp_y="0 : 1000 : 0"
       inkscape:vp_x="0 : 0.5 : 1"
       sodipodi:type="inkscape:persp3d" />
    <inkscape:perspective
       id="perspective4598"
       inkscape:persp3d-origin="0.5 : 0.33333333 : 1"
       inkscape:vp_z="1 : 0.5 : 1"
       inkscape:vp_y="0 : 1000 : 0"
       inkscape:vp_x="0 : 0.5 : 1"
       sodipodi:type="inkscape:persp3d" />
    <inkscape:perspective
       id="perspective4620"
       inkscape:persp3d-origin="0.5 : 0.33333333 : 1"
       inkscape:vp_z="1 : 0.5 : 1"
       inkscape:vp_y="0 : 1000 : 0"
       inkscape:vp_x="0 : 0.5 : 1"
       sodipodi:type="inkscape:persp3d" />
    <inkscape:perspective
       id="perspective4646"
       inkscape:persp3d-origin="0.5 : 0.33333333 : 1"
       inkscape:vp_z="1 : 0.5 : 1"
       inkscape:vp_y="0 : 1000 : 0"
       inkscape:vp_x="0 : 0.5 : 1"
       sodipodi:type="inkscape:persp3d" />
    <inkscape:perspective
       id="perspective4670"
       inkscape:persp3d-origin="0.5 : 0.33333333 : 1"
       inkscape:vp_z="1 : 0.5 : 1"
       inkscape:vp_y="0 : 1000 : 0"
       inkscape:vp_x="0 : 0.5 : 1"
       sodipodi:type="inkscape:persp3d" />
    <inkscape:perspective
       id="perspective4692"
       inkscape:persp3d-origin="0.5 : 0.33333333 : 1"
       inkscape:vp_z="1 : 0.5 : 1"
       inkscape:vp_y="0 : 1000 : 0"
       inkscape:vp_x="0 : 0.5 : 1"
       sodipodi:type="inkscape:persp3d" />
    <inkscape:perspective
       id="perspective4714"
       inkscape:persp3d-origin="0.5 : 0.33333333 : 1"
       inkscape:vp_z="1 : 0.5 : 1"
       inkscape:vp_y="0 : 1000 : 0"
       inkscape:vp_x="0 : 0.5 : 1"
       sodipodi:type="inkscape:persp3d" />
    <inkscape:perspective
       id="perspective4736"
       inkscape:persp3d-origin="0.5 : 0.33333333 : 1"
       inkscape:vp_z="1 : 0.5 : 1"
       inkscape:vp_y="0 : 1000 : 0"
       inkscape:vp_x="0 : 0.5 : 1"
       sodipodi:type="inkscape:persp3d" />
  </defs>
  <sodipodi:namedview
     id="base"
     pagecolor="#ffffff"
     bordercolor="#666666"
     borderopacity="1.0"
     inkscape:pageopacity="0.0"
     inkscape:pageshadow="2"
     inkscape:zoom="0.16"
     inkscape:cx="-1166.8803"
     inkscape:cy="884.57712"
     inkscape:document-units="mm"
     inkscape:current-layer="layer1"
     showgrid="false"
     showguides="true"
     inkscape:guide-bbox="true"
     inkscape:window-width="1440"
     inkscape:window-height="827"
     inkscape:window-x="0"
     inkscape:window-y="24"
     inkscape:window-maximized="1"
     showborder="true"
     inkscape:showpageshadow="false"
     units="mm"
     inkscape:snap-grids="true"
     guidetolerance="20"
     gridtolerance="10"
     fit-margin-top="10"
     fit-margin-left="0"
     fit-margin-right="0"
     fit-margin-bottom="0">
    <sodipodi:guide
       orientation="1,0"
       position="0,1531.6696"
       id="guide3665" />
    <sodipodi:guide
       orientation="1,0"
       position="0,1531.6696"
       id="guide3667" />
    <sodipodi:guide
       orientation="1,0"
       position="0,1531.6696"
       id="guide3669" />
    <sodipodi:guide
       orientation="1,0"
       position="0,1531.6696"
       id="guide3671" />
    <sodipodi:guide
       orientation="0,1"
       position="659.02352,1452.7544"
       id="guide3675" />
    <sodipodi:guide
       orientation="1,0"
       position="1119.685,1701.4316"
       id="guide3677" />
    <sodipodi:guide
       orientation="0,1"
       position="559.84252,1204.7229"
       id="guide3683" />
    <sodipodi:guide
       orientation="0,1"
       position="-329.6875,1382.3066"
       id="guide4660" />
    <inkscape:grid
       type="xygrid"
       id="grid4397"
       empspacing="4"
       visible="true"
       enabled="true"
       snapvisiblegridlinesonly="true"
       units="mm"
       dotted="false"
       spacingx="1mm"
       spacingy="1mm" />
    <sodipodi:guide
       orientation="-0.8660254,0.5"
       position="559.84252,1204.7229"
       id="guide4932" />
    <sodipodi:guide
       orientation="0.8660254,0.5"
       position="559.84252,1204.7229"
       id="guide4936" />
    <sodipodi:guide
       orientation="1,0"
       position="70.866142,436.99427"
       id="guide4962" />
    <sodipodi:guide
       orientation="1,0"
       position="1047.4019,1018.752"
       id="guide4964" />
  </sodipodi:namedview>
  <metadata
     id="metadata7">
    <rdf:RDF>
      <cc:Work
         rdf:about="">
        <dc:format>image/svg+xml</dc:format>
        <dc:type
           rdf:resource="http://purl.org/dc/dcmitype/StillImage" />
        <dc:title />
      </cc:Work>
    </rdf:RDF>
  </metadata>
  <g
     inkscape:label="Layer 1"
     inkscape:groupmode="layer"
     id="layer1"
     transform="translate(0,400.38832)">
    <g
       id="g3900" />
    <path
       style="fill:#d4aa00;fill-opacity:1;stroke:none"
       d="m 1711.5699,1068.5136 c 6.8085,0 12.2812,-5.2266 12.2812,-11.7188 l 0,-153.7187 c 0,-6.49219 -5.4727,-11.71869 -12.2812,-11.71869 l -506.9061,0 c -6.8085,0 -12.2813,5.2265 -12.2813,11.71869 l 0,153.7187 c 0,6.4922 5.4728,11.7188 12.2813,11.7188 l 506.9061,0 z M 1593.2262,941.7948 c -5.8707,0 -10.6249,-4.7542 -10.625,-10.625 0,-5.8707 4.7543,-10.625 10.625,-10.625 5.8708,0 10.625,4.7543 10.625,10.625 0,5.8708 -4.7542,10.625 -10.625,10.625 z m -135.0937,0 c -5.8707,0 -10.6563,-4.7542 -10.6563,-10.625 0,-5.8707 4.7856,-10.625 10.6563,-10.625 5.8707,0 10.625,4.7543 10.625,10.625 0,5.8708 -4.7543,10.625 -10.625,10.625 z m -144.9063,0 c -5.8707,0 -10.6249,-4.7542 -10.625,-10.625 0,-5.8707 4.7543,-10.625 10.625,-10.625 5.8708,0 10.625,4.7543 10.625,10.625 0,5.8708 -4.7542,10.625 -10.625,10.625 z"
       id="rect4214"
       inkscape:connector-curvature="0" />
    <path
       style="fill:#ff2a2a;fill-opacity:1;stroke:none"
       d="m 1203.6945,292.99463 c -6.6363,0 -11.25,3.776 -11.25,10.625 l 0,13.8437 0,0.25 0,66.9376 -0.062,0 0,67.3124 531.5,0 0,-67.1874 0.062,0 0,-67.3126 -0.062,0 0.062,-13.8437 c 2e-4,-7.1252 -4.6135,-10.625 -11.25,-10.625 z m 95.125,40.4063 c 9.7846,0 17.7188,7.9341 17.7188,17.7187 0,9.7846 -7.9342,17.7187 -17.7188,17.7187 -9.7844,0 -17.7187,-7.9341 -17.7187,-17.7187 0,-9.7846 7.9342,-17.7187 17.7187,-17.7187 z m 318.75,0 c 9.7846,0 17.7188,7.9341 17.7188,17.7187 0,9.7846 -7.9342,17.7187 -17.7188,17.7187 -9.7844,0 -17.7187,-7.9341 -17.7187,-17.7187 0,-9.7846 7.9342,-17.7187 17.7187,-17.7187 z m -158.0312,7.0937 c 5.8707,0 10.625,4.7543 10.625,10.625 0,5.8707 -4.7543,10.625 -10.625,10.625 -5.8707,0 -10.625,-4.7543 -10.625,-10.625 0,-5.8707 4.7543,-10.625 10.625,-10.625 z"
       id="rect4313-2"
       inkscape:connector-curvature="0"
       sodipodi:nodetypes="sscccccccccccsssssssssssssssss" />
    <path
       style="fill:#ff2a2a;fill-opacity:1;stroke:none"
       d="m 354.4844,613.66443 c -4.0125,0 -7.25,2.9837 -7.25,6.6563 l 0,9.625 0,1.4374 0,63.9688 0,1.9062 0,9.1876 c 0,3.6725 3.2375,6.625 7.25,6.625 l 410.7187,0 c 4.0125,0 7.2501,-2.9525 7.25,-6.625 l 0,-9.1876 0,-1.9062 0,-63.9688 0,-1.4374 0,-9.625 c 1e-4,-3.6726 -3.2375,-6.6563 -7.25,-6.6563 l -410.7187,0 z m 46.0937,32.2187 c 9.7836,0 17.6876,7.9342 17.6876,17.7188 0,9.7846 -7.9041,17.7187 -17.6876,17.7188 -9.7833,0 -17.7187,-7.9342 -17.7187,-17.7188 0,-9.7846 7.9353,-17.7188 17.7187,-17.7188 z m 318.6876,0 c 9.7833,0 17.7187,7.9342 17.7187,17.7188 0,9.7846 -7.9353,17.7187 -17.7187,17.7188 -9.7836,0 -17.6876,-7.9342 -17.6876,-17.7188 0,-9.7846 7.9041,-17.7188 17.6876,-17.7188 z m -158,7.0938 c 5.8699,0 10.6248,4.7543 10.625,10.625 0,5.8707 -4.7551,10.625 -10.625,10.625 -5.8702,0 -10.625,-4.7543 -10.625,-10.625 0,-5.8707 4.7548,-10.625 10.625,-10.625 z"
       id="rect4313-3"
       inkscape:connector-curvature="0" />
    <path
       style="fill:#ff2a2a;fill-opacity:1;stroke:none"
       d="m 354.4844,740.12073 c -4.0125,0 -7.25,2.9837 -7.25,6.6563 l 0,9.625 0,1.4374 0,63.9688 0,1.9062 0,9.1876 c 0,3.6725 3.2375,6.625 7.25,6.625 l 410.7187,0 c 4.0125,0 7.2501,-2.9525 7.25,-6.625 l 0,-9.1876 0,-1.9062 0,-63.9688 0,-1.4374 0,-9.625 c 1e-4,-3.6726 -3.2375,-6.6563 -7.25,-6.6563 l -410.7187,0 z m 46.0937,32.2187 c 9.7836,0 17.6876,7.9342 17.6876,17.7188 0,9.7846 -7.9041,17.7187 -17.6876,17.7188 -9.7833,0 -17.7187,-7.9342 -17.7187,-17.7188 0,-9.7846 7.9353,-17.7188 17.7187,-17.7188 z m 318.6876,0 c 9.7833,0 17.7187,7.9342 17.7187,17.7188 0,9.7846 -7.9353,17.7187 -17.7187,17.7188 -9.7836,0 -17.6876,-7.9342 -17.6876,-17.7188 0,-9.7846 7.9041,-17.7188 17.6876,-17.7188 z m -158,7.0938 c 5.8699,0 10.6248,4.7543 10.625,10.625 0,5.8707 -4.7551,10.625 -10.625,10.625 -5.8702,0 -10.625,-4.7543 -10.625,-10.625 0,-5.8707 4.7548,-10.625 10.625,-10.625 z"
       id="rect4313-3-9"
       inkscape:connector-curvature="0" />
    <path
       style="fill:#d4aa00;fill-opacity:1;stroke:none"
       d="m 1711.5699,856.93434 c 6.8085,0 12.2812,-5.2265 12.2812,-11.7188 l 0,-153.7187 c 0,-6.4922 -5.4727,-11.7187 -12.2812,-11.7187 l -506.9061,0 c -6.8085,0 -12.2813,5.2265 -12.2813,11.7187 l 0,153.7187 c 0,6.4923 5.4728,11.7188 12.2813,11.7188 l 506.9061,0 z m -118.3437,-126.7188 c -5.8707,0 -10.6249,-4.7541 -10.625,-10.625 0,-5.8707 4.7543,-10.625 10.625,-10.625 5.8708,0 10.625,4.7543 10.625,10.625 0,5.8709 -4.7542,10.625 -10.625,10.625 z m -135.0937,0 c -5.8707,0 -10.6563,-4.7541 -10.6563,-10.625 0,-5.8707 4.7856,-10.625 10.6563,-10.625 5.8707,0 10.625,4.7543 10.625,10.625 0,5.8709 -4.7543,10.625 -10.625,10.625 z m -144.9063,0 c -5.8707,0 -10.6249,-4.7541 -10.625,-10.625 0,-5.8707 4.7543,-10.625 10.625,-10.625 5.8708,0 10.625,4.7543 10.625,10.625 0,5.8709 -4.7542,10.625 -10.625,10.625 z"
       id="rect4214-8"
       inkscape:connector-curvature="0" />
    <path
       style="fill:#ffaaaa;fill-opacity:1;stroke:none"
       d="M 70.4375,687.40625 C 31.409372,687.40625 0,718.81562 0,757.84375 L 0,2069.7188 c 0,39.0281 31.409372,70.4374 70.4375,70.4374 l 978.8125,0 c 39.0281,0 70.4375,-31.4093 70.4375,-70.4374 l 0,-1311.87505 c 0,-39.02813 -31.4094,-70.4375 -70.4375,-70.4375 l -978.8125,0 z m 15.03125,71.125 325.125,0 c 8.08372,0 14.59375,6.51003 14.59375,14.59375 l 0,325.1562 c 0,8.0838 -6.51003,14.5938 -14.59375,14.5938 l -325.125,0 c -8.083717,0 -14.59375,-6.51 -14.59375,-14.5938 l 0,-325.1562 c 0,-8.08372 6.510033,-14.59375 14.59375,-14.59375 z m 623.625,0 325.12505,0 c 8.0837,0 14.5937,6.51003 14.5937,14.59375 l 0,325.1562 c 0,8.0838 -6.51,14.5938 -14.5937,14.5938 l -325.12505,0 c -8.08372,0 -14.59375,-6.51 -14.59375,-14.5938 l 0,-325.1562 c 0,-8.08372 6.51003,-14.59375 14.59375,-14.59375 z m -201.28125,124.6875 102.75,0 0,102.75 -102.75,0 0,-102.75 z m 15.53125,197.09375 73,0 c 19.0438,0 34.375,16.725 34.375,37.5 l 0,41.0937 194.875,0 0,67.3126 -35.4375,0 0,680.3124 35.4375,0 0,67.3438 -150.59375,0 0,81.0312 c 0,13.8502 -12.5438,25 -28.125,25 l -174.0625,0 c -15.5813,0 -28.125,-11.1498 -28.125,-25 l 0,-81.0312 -150.59375,0 0,-67.3438 35.4375,0 0,-680.3124 -35.4375,0 0,-67.3126 194.875,0 0,-41.0937 c 0,-20.775 15.3313,-37.5 34.375,-37.5 z m -338.875,490.7187 c 8.80612,0 15.9375,7.1627 15.9375,15.9688 0,8.8061 -7.13138,15.9375 -15.9375,15.9375 -8.80612,0 -15.9375,-7.1314 -15.9375,-15.9375 0,-8.8061 7.13138,-15.9687 15.9375,-15.9688 z m 750.3125,0.6876 c 8.80612,0 15.9375,7.1313 15.9375,15.9374 0,8.8062 -7.13138,15.9376 -15.9375,15.9376 -8.80612,0 -15.9375,-7.1314 -15.9375,-15.9376 0,-8.8061 7.13138,-15.9375 15.9375,-15.9374 z m 98.65625,21.25 33.6563,58.3124 L 929,1731 l -33.65625,-58.2812 138.09375,-79.75 z m -947.1875,2.5937 138.09375,79.7187 -33.65625,58.3126 -138.09375,-79.75 33.65625,-58.2813 z m 2.4375,135.6563 c 3.073383,-0.1172 6.497697,0.7265 10.15625,2.7187 l 114.8125,62.5313 c 16.72481,9.1074 34.375,15.3312 34.375,34.375 l 0,214.6874 c 0,19.0438 -15.33125,34.375 -34.375,34.375 l -108.40625,0 c -19.043748,0 -34.375,-15.3312 -34.375,-34.375 l 0,-286.5 c 0,-14.8779 6.836133,-27.3939 17.8125,-27.8124 z m 940.9687,0 c 11.7534,-0.587 19.1563,12.3394 19.1563,27.8124 l 0,286.5 c 0,19.0438 -15.3312,34.375 -34.375,34.375 l -108.40625,0 c -19.0438,0 -34.375,-15.3312 -34.375,-34.375 l 0,-214.6874 c 0,-19.0438 17.6502,-25.2676 34.375,-34.375 l 114.81255,-62.5313 c 3.1358,-1.7077 6.1001,-2.5833 8.8124,-2.7187 z"
       transform="translate(0,-1052.3615)"
       id="rect4890"
       inkscape:connector-curvature="0" />
    <g
       id="g3087"
       transform="translate(-6.62796,0)">
      <path
         sodipodi:nodetypes="ssccccsssssssssssss"
         id="rect3695-5"
         d="m 601.22171,144.36287 c -13.296,0 -24,9.8118 -24,22 l 0,403.18745 24,0 111.4375,0 24,0 0,-403.18745 c 0,-12.1882 -10.704,-22 -24,-22 z m 55.71875,40 c 15.65532,0 28.34375,12.68845 28.34375,28.34375 0,15.6553 -12.68843,28.34375 -28.34375,28.34375 -15.65532,0 -28.34375,-12.68845 -28.34375,-28.34375 0,-15.6553 12.68843,-28.34365 28.34375,-28.34375 z m 0,94 c 8.80612,0 15.9375,7.16263 15.9375,15.96875 0,8.80612 -7.13138,15.9375 -15.9375,15.9375 -8.80612,0 -15.9375,-7.13138 -15.9375,-15.9375 0,-8.80612 7.13138,-15.96875 15.9375,-15.96875 z"
         style="fill:#d4aa00;fill-opacity:1;stroke:none"
         inkscape:connector-curvature="0" />
      <path
         sodipodi:nodetypes="ssccccsssssssssssss"
         id="rect3695-5-4"
         d="m 420.28421,144.36287 c -13.296,0 -24,9.8118 -24,22 l 0,403.18745 24,0 111.4375,0 24,0 0,-403.18745 c 0,-12.1882 -10.704,-22 -24,-22 z m 55.71875,40 c 15.65532,0 28.34375,12.68845 28.34375,28.34375 0,15.6553 -12.68843,28.34374 -28.34375,28.34374 -15.65532,0 -28.34375,-12.68844 -28.34375,-28.34374 0,-15.6553 12.68843,-28.34365 28.34375,-28.34375 z m 0,94 c 8.80612,0 15.9375,7.16263 15.9375,15.96875 0,8.80612 -7.13138,15.9375 -15.9375,15.9375 -8.80612,0 -15.9375,-7.13138 -15.9375,-15.9375 0,-8.80612 7.13138,-15.96875 15.9375,-15.96875 z"
         style="fill:#d4aa00;fill-opacity:1;stroke:none"
         inkscape:connector-curvature="0" />
    </g>
    <path
       style="fill:#ff2a2a;fill-opacity:1;stroke:none"
       d="m 1203.6945,486.38638 c -6.6363,0 -11.25,3.776 -11.25,10.625 l 0,13.8437 0,0.25 0,66.9376 -0.062,0 0,67.3124 531.5,0 0,-67.1874 0.062,0 0,-67.3126 -0.062,0 0.062,-13.8437 c 2e-4,-7.1252 -4.6135,-10.625 -11.25,-10.625 z m 95.125,40.4063 c 9.7846,0 17.7188,7.9341 17.7188,17.7187 0,9.7846 -7.9342,17.7187 -17.7188,17.7187 -9.7844,0 -17.7187,-7.9341 -17.7187,-17.7187 0,-9.7846 7.9342,-17.7187 17.7187,-17.7187 z m 318.75,0 c 9.7846,0 17.7188,7.9341 17.7188,17.7187 0,9.7846 -7.9342,17.7187 -17.7188,17.7187 -9.7844,0 -17.7187,-7.9341 -17.7187,-17.7187 0,-9.7846 7.9342,-17.7187 17.7187,-17.7187 z m -158.0312,7.0937 c 5.8707,0 10.625,4.7543 10.625,10.625 0,5.8707 -4.7543,10.625 -10.625,10.625 -5.8707,0 -10.625,-4.7543 -10.625,-10.625 0,-5.8707 4.7543,-10.625 10.625,-10.625 z"
       id="rect4313-2-4"
       inkscape:connector-curvature="0"
       sodipodi:nodetypes="sscccccccccccsssssssssssssssss" />
    <path
       inkscape:connector-curvature="0"
       style="fill:#008080;fill-opacity:1;stroke:none"
       d="m 1548.6325,116.82161 c -39.1383,0 -70.875,31.73671 -70.875,70.875 0,39.13829 31.7367,70.875 70.875,70.875 39.1383,0 70.8438,-31.73671 70.8438,-70.875 -10e-5,-39.13829 -31.7055,-70.875 -70.8438,-70.875 z M 1397.07,134.54036 c -34.246,0 -62,27.78525 -62,62.03125 0,34.246 27.754,62 62,62 34.246,0 62.0313,-27.754 62.0313,-62 -10e-5,-34.246 -27.7853,-62.03125 -62.0313,-62.03125 z m -151.5313,17.71875 c -29.3537,0 -53.1562,23.80253 -53.1562,53.15625 0,29.35372 23.8025,53.15625 53.1562,53.15625 29.3538,0 53.1563,-23.80253 53.1563,-53.15625 0,-29.35372 -23.8025,-53.15625 -53.1563,-53.15625 z m 303.0938,24.8125 c 5.8707,0 10.625,4.75426 10.625,10.625 0,5.87074 -4.7543,10.625 -10.625,10.625 -5.8707,0 -10.625,-4.75426 -10.625,-10.625 0,-5.87074 4.7543,-10.625 10.625,-10.625 z m -151.5625,8.84375 c 5.8707,0 10.625,4.78551 10.625,10.65625 0,5.87074 -4.7543,10.625 -10.625,10.625 -5.8707,0 -10.625,-4.75426 -10.625,-10.625 0,-5.87074 4.7543,-10.65625 10.625,-10.65625 z m -151.5313,8.875 c 5.8708,0 10.625,4.75426 10.625,10.625 0,5.87074 -4.7542,10.625 -10.625,10.625 -5.8707,0 -10.625,-4.75426 -10.625,-10.625 0,-5.87074 4.7543,-10.625 10.625,-10.625 z"
       id="path3115" />
    <path
       style="color:#000000;fill:#008080;fill-opacity:1;fill-rule:nonzero;stroke:none;stroke-width:7.08661413;marker:none;visibility:visible;display:inline;overflow:visible;enable-background:accumulate"
       d="m 1404.9763,-318.89718 c -117.4149,0 -212.5938,95.17889 -212.5938,212.59375 0,117.414895 95.1789,212.5938 212.5938,212.5938 117.4148,0 212.5937,-95.178905 212.5937,-212.5938 0,-117.41486 -95.1789,-212.59375 -212.5937,-212.59375 z m 0,201.96875 c 5.8707,0 10.625,4.75426 10.625,10.625 0,5.87074 -4.7543,10.624995 -10.625,10.624995 -5.8708,0 -10.625,-4.754255 -10.625,-10.624995 0,-5.87074 4.7542,-10.625 10.625,-10.625 z"
       id="path3201"
       inkscape:connector-curvature="0" />
  </g>
</svg>
