<?xml version="1.0" encoding="UTF-8" standalone="no"?>
<!-- Created with Inkscape (http://www.inkscape.org/) -->

<svg
   xmlns:dc="http://purl.org/dc/elements/1.1/"
   xmlns:cc="http://creativecommons.org/ns#"
   xmlns:rdf="http://www.w3.org/1999/02/22-rdf-syntax-ns#"
   xmlns:svg="http://www.w3.org/2000/svg"
   xmlns="http://www.w3.org/2000/svg"
   xmlns:sodipodi="http://sodipodi.sourceforge.net/DTD/sodipodi-0.dtd"
   xmlns:inkscape="http://www.inkscape.org/namespaces/inkscape"
   id="svg4638"
   version="1.1"
   inkscape:version="0.47 r22583"
   width="743.75"
   height="1052.5"
   xml:space="preserve"
   sodipodi:docname="rotary_platform.eps"><metadata
     id="metadata4644"><rdf:RDF><cc:Work
         rdf:about=""><dc:format>image/svg+xml</dc:format><dc:type
           rdf:resource="http://purl.org/dc/dcmitype/StillImage" /><dc:title></dc:title></cc:Work></rdf:RDF></metadata><defs
     id="defs4642"><inkscape:perspective
       sodipodi:type="inkscape:persp3d"
       inkscape:vp_x="0 : 0.5 : 1"
       inkscape:vp_y="0 : 1000 : 0"
       inkscape:vp_z="1 : 0.5 : 1"
       inkscape:persp3d-origin="0.5 : 0.33333333 : 1"
       id="perspective4646" /></defs><sodipodi:namedview
     pagecolor="#ffffff"
     bordercolor="#666666"
     borderopacity="1"
     objecttolerance="10"
     gridtolerance="10"
     guidetolerance="10"
     inkscape:pageopacity="0"
     inkscape:pageshadow="2"
     inkscape:window-width="1280"
     inkscape:window-height="715"
     id="namedview4640"
     showgrid="false"
     inkscape:zoom="0.69959145"
     inkscape:cx="239.12501"
     inkscape:cy="845.7523"
     inkscape:window-x="-4"
     inkscape:window-y="32"
     inkscape:window-maximized="1"
     inkscape:current-layer="g4648" /><g
     id="g4648"
     inkscape:groupmode="layer"
     inkscape:label="ink_ext_XXXXXX"
     transform="matrix(1.25,0,0,-1.25,0,1052.5)"><path
       d="m 191.31669,184.25291 c 0,-3.90243 -3.16447,-7.06296 -7.06606,-7.06296 -3.89858,0 -7.06206,3.16053 -7.06206,7.06296 0,3.89743 3.16348,7.06196 7.06206,7.06196 3.90159,0 7.06606,-3.16453 7.06606,-7.06196 z"
       style="fill:none;stroke:#000000;stroke-width:0.02834644;stroke-linecap:butt;stroke-linejoin:miter;stroke-miterlimit:4;stroke-opacity:1;stroke-dasharray:none"
       id="path4678" /><path
       d="m 188.41469,163.04116 c 0,-2.31975 -1.8804,-4.20235 -4.20366,-4.20235 -2.32025,0 -4.19965,1.8826 -4.19965,4.20235 0,2.32574 1.8794,4.20734 4.19965,4.20734 2.32326,0 4.20366,-1.8816 4.20366,-4.20734 z"
       style="fill:none;stroke:#000000;stroke-width:0.0265616;stroke-linecap:butt;stroke-linejoin:miter;stroke-miterlimit:4;stroke-opacity:1;stroke-dasharray:none"
       id="path4682" /><path
       d="m 209.27701,184.06588 c 0,-2.32474 -1.8784,-4.20334 -4.19966,-4.20334 -2.32025,0 -4.20265,1.8786 -4.20265,4.20334 0,2.31974 1.8824,4.20235 4.20265,4.20235 2.32126,0 4.19966,-1.88261 4.19966,-4.20235 z"
       style="fill:none;stroke:#000000;stroke-width:0.0265616;stroke-linecap:butt;stroke-linejoin:miter;stroke-miterlimit:4;stroke-opacity:1;stroke-dasharray:none"
       id="path4686" /><path
       d="m 188.41469,205.13962 c 0,-2.32374 -1.8804,-4.20734 -4.20366,-4.20734 -2.32025,0 -4.19965,1.8836 -4.19965,4.20734 0,2.31975 1.8794,4.20335 4.19965,4.20335 2.32326,0 4.20366,-1.8836 4.20366,-4.20335 z"
       style="fill:none;stroke:#000000;stroke-width:0.0265616;stroke-linecap:butt;stroke-linejoin:miter;stroke-miterlimit:4;stroke-opacity:1;stroke-dasharray:none"
       id="path4690" /><path
       d="m 167.55037,184.16992 c 0,-2.32375 -1.8824,-4.20635 -4.20266,-4.20635 -2.32125,0 -4.20365,1.8826 -4.20365,4.20635 0,2.32174 1.8824,4.20334 4.20365,4.20334 2.32026,0 4.20266,-1.8816 4.20266,-4.20334 z"
       style="fill:none;stroke:#000000;stroke-width:0.0265616;stroke-linecap:butt;stroke-linejoin:miter;stroke-miterlimit:4;stroke-opacity:1;stroke-dasharray:none"
       id="path4694" /><path
       id="path4696"
       style="fill:none;stroke:#000000;stroke-width:0.25819901;stroke-linecap:butt;stroke-linejoin:miter;stroke-miterlimit:4;stroke-opacity:1;stroke-dasharray:none"
       d="m 400.48517,630.22658 c 0,-101.6864 -82.434,-184.12466 -184.121,-184.12466 -101.6919,0 -184.125095,82.43826 -184.125095,184.12466 0,101.689 82.433195,184.121 184.125095,184.121 101.687,0 184.121,-82.432 184.121,-184.121 z" /><path
       d="m 395.46041,233.60873 c 0,-2.32074 -1.8824,-4.20334 -4.20265,-4.20334 -2.32026,0 -4.20366,1.8826 -4.20366,4.20334 0,2.32374 1.8834,4.20235 4.20366,4.20235 2.32025,0 4.20265,-1.87861 4.20265,-4.20235 z"
       style="fill:none;stroke:#000000;stroke-width:0.0265616;stroke-linecap:butt;stroke-linejoin:miter;stroke-miterlimit:4;stroke-opacity:1;stroke-dasharray:none"
       id="path4746" /><path
       d="m 395.4884,41.631218 c 0,-2.323744 -1.8794,-4.206546 -4.19965,-4.206546 -2.32326,0 -4.20366,1.882802 -4.20366,4.206546 0,2.321142 1.8804,4.203144 4.20366,4.203144 2.32025,0 4.19965,-1.882002 4.19965,-4.203144 z"
       style="fill:none;stroke:#000000;stroke-width:0.0265616;stroke-linecap:butt;stroke-linejoin:miter;stroke-miterlimit:4;stroke-opacity:1;stroke-dasharray:none"
       id="path4780" /><path
       d="m 395.62836,195.91667 c 0,-2.32374 -1.8824,-4.20734 -4.20266,-4.20734 -2.32125,0 -4.20365,1.8836 -4.20365,4.20734 0,2.32075 1.8824,4.20335 4.20365,4.20335 2.32026,0 4.20266,-1.8826 4.20266,-4.20335 z"
       style="fill:none;stroke:#000000;stroke-width:0.0265616;stroke-linecap:butt;stroke-linejoin:miter;stroke-miterlimit:4;stroke-opacity:1;stroke-dasharray:none"
       id="path4792" /><path
       sodipodi:type="arc"
       style="fill:#ff0800;fill-opacity:0;stroke:#000000;stroke-width:0.03543307;stroke-miterlimit:4;stroke-opacity:1;stroke-dasharray:none"
       id="path4899"
       sodipodi:cx="-188.68155"
       sodipodi:cy="79.074722"
       sodipodi:rx="41.452766"
       sodipodi:ry="41.452766"
       d="m -147.22878,79.074722 a 41.452766,41.452766 0 1 1 -82.90554,0 41.452766,41.452766 0 1 1 82.90554,0 z"
       transform="matrix(0.54862654,0,0,-0.54858636,319.87783,673.60406)" /></g></svg>